<svg width="555" height="364" viewBox="0 0 555 364" fill="none" xmlns="http://www.w3.org/2000/svg">
<path opacity="0.8" d="M45 26H554V295C554 297.761 551.761 300 549 300H50C47.2386 300 45 297.761 45 295V26Z" fill="#E6E6E6"/>
<path d="M549.422 300.575H49.8571C48.3781 300.573 46.9602 299.982 45.9144 298.932C44.8686 297.881 44.2804 296.457 44.2788 294.972V6.09826C44.2804 4.61271 44.8686 3.18847 45.9144 2.13803C46.9602 1.08759 48.3781 0.496739 49.8571 0.495117H549.422C550.901 0.496739 552.319 1.08759 553.364 2.13803C554.41 3.18847 554.998 4.61271 555 6.09826V294.972C554.998 296.457 554.41 297.881 553.364 298.932C552.319 299.982 550.901 300.573 549.422 300.575V300.575ZM49.8571 1.74026C48.7068 1.74161 47.604 2.20119 46.7907 3.01818C45.9773 3.83517 45.5198 4.94286 45.5184 6.09826V294.972C45.5198 296.127 45.9773 297.235 46.7907 298.052C47.604 298.869 48.7068 299.328 49.8571 299.33H549.422C550.572 299.328 551.675 298.869 552.488 298.052C553.301 297.235 553.759 296.127 553.76 294.972V6.09826C553.759 4.94288 553.301 3.83522 552.488 3.01823C551.675 2.20125 550.572 1.74166 549.422 1.74026H49.8571Z" fill="#E6E6E6"/>
<path d="M247.653 218.551H89.8348C88.438 218.549 87.0989 217.991 86.1113 216.999C85.1236 216.007 84.568 214.662 84.5664 213.259V115.515C84.568 114.112 85.1236 112.767 86.1113 111.775C87.0989 110.783 88.438 110.225 89.8348 110.223H247.653C249.05 110.225 250.389 110.783 251.376 111.775C252.364 112.767 252.92 114.112 252.921 115.515V213.259C252.92 214.662 252.364 216.007 251.376 216.999C250.389 217.991 249.05 218.549 247.653 218.551V218.551Z" fill="#01579A"/>
<path d="M34.215 239.008C33.5416 239.009 32.8786 238.841 32.2866 238.519C31.6946 238.196 31.1926 237.73 30.8264 237.162L25.8555 229.448C25.2764 228.546 25.0767 227.451 25.3004 226.402C25.5241 225.353 26.1529 224.435 27.0488 223.851L91.0561 182.237C91.9535 181.655 93.044 181.455 94.0883 181.679C95.1327 181.904 96.0457 182.536 96.6271 183.436L101.598 191.15C101.885 191.596 102.083 192.095 102.178 192.617C102.274 193.14 102.266 193.676 102.155 194.196C102.045 194.716 101.833 195.208 101.532 195.646C101.232 196.083 100.849 196.457 100.405 196.746L36.3977 238.36C35.7479 238.784 34.9897 239.009 34.215 239.008Z" fill="#F0D4D1" fill-opacity="0.93"/>
<path d="M36.2104 237.845L62.9671 222.838C63.8016 222.37 64.4247 221.597 64.707 220.68C64.9893 219.763 64.9092 218.772 64.4833 217.912L58.2848 205.403C58.0399 204.909 57.6891 204.475 57.2575 204.134C56.8259 203.792 56.3243 203.551 55.7888 203.427C55.2532 203.303 54.6971 203.3 54.1602 203.418C53.6234 203.536 53.1194 203.772 52.6842 204.11L27.1943 223.858C26.3678 224.397 25.7877 225.243 25.581 226.211C25.3742 227.179 25.5577 228.19 26.0912 229.022L31.0631 236.738C31.6001 237.57 32.4437 238.153 33.4087 238.361C34.3738 238.568 35.3814 238.383 36.2104 237.845V237.845Z" fill="#01579A"/>
<path d="M62.7898 17.4538C65.186 17.4538 67.1285 15.5027 67.1285 13.0958C67.1285 10.6889 65.186 8.73779 62.7898 8.73779C60.3937 8.73779 58.4512 10.6889 58.4512 13.0958C58.4512 15.5027 60.3937 17.4538 62.7898 17.4538Z" fill="#C44F16"/>
<path d="M75.1858 17.4538C77.582 17.4538 79.5245 15.5027 79.5245 13.0958C79.5245 10.6889 77.582 8.73779 75.1858 8.73779C72.7896 8.73779 70.8472 10.6889 70.8472 13.0958C70.8472 15.5027 72.7896 17.4538 75.1858 17.4538Z" fill="#C44F16"/>
<path d="M87.5818 17.4538C89.978 17.4538 91.9205 15.5027 91.9205 13.0958C91.9205 10.6889 89.978 8.73779 87.5818 8.73779C85.1856 8.73779 83.2432 10.6889 83.2432 13.0958C83.2432 15.5027 85.1856 17.4538 87.5818 17.4538Z" fill="#C44F16"/>
<path d="M554.38 23.5303H44.8989V26.6431H554.38V23.5303Z" fill="#E6E6E6"/>
<path d="M101.224 103.375C99.9913 103.376 98.8097 103.869 97.9382 104.744C97.0667 105.619 96.5765 106.806 96.5752 108.044V205.788C96.5765 207.026 97.0667 208.213 97.9382 209.088C98.8097 209.964 99.9913 210.456 101.224 210.457H259.042C260.274 210.456 261.456 209.964 262.327 209.088C263.199 208.213 263.689 207.026 263.69 205.788V108.044C263.689 106.806 263.199 105.619 262.327 104.744C261.456 103.869 260.274 103.376 259.042 103.375H101.224Z" fill="#C44F16"/>
<path d="M327.221 104.309C326.317 104.309 325.45 104.67 324.811 105.312C324.172 105.954 323.812 106.825 323.812 107.733C323.812 108.641 324.172 109.512 324.811 110.154C325.45 110.797 326.317 111.157 327.221 111.157H511.304C512.208 111.157 513.075 110.797 513.715 110.154C514.354 109.512 514.713 108.641 514.713 107.733C514.713 106.825 514.354 105.954 513.715 105.312C513.075 104.67 512.208 104.309 511.304 104.309H327.221Z" fill="#C44F16"/>
<path d="M327.221 126.099C326.317 126.099 325.45 126.46 324.811 127.102C324.172 127.744 323.812 128.615 323.812 129.523C323.812 130.431 324.172 131.302 324.811 131.944C325.45 132.587 326.317 132.947 327.221 132.947H511.304C512.208 132.947 513.075 132.587 513.715 131.944C514.354 131.302 514.713 130.431 514.713 129.523C514.713 128.615 514.354 127.744 513.715 127.102C513.075 126.46 512.208 126.099 511.304 126.099H327.221Z" fill="#C44F16"/>
<path d="M327.221 147.889C326.317 147.889 325.45 148.25 324.811 148.892C324.172 149.534 323.812 150.405 323.812 151.313C323.812 152.221 324.172 153.092 324.811 153.734C325.45 154.376 326.317 154.737 327.221 154.737H511.304C512.208 154.737 513.075 154.376 513.715 153.734C514.354 153.092 514.713 152.221 514.713 151.313C514.713 150.405 514.354 149.534 513.715 148.892C513.075 148.25 512.208 147.889 511.304 147.889H327.221Z" fill="#C44F16"/>
<path d="M327.221 169.679C326.317 169.679 325.45 170.04 324.811 170.682C324.172 171.324 323.812 172.195 323.812 173.103C323.812 174.011 324.172 174.882 324.811 175.524C325.45 176.166 326.317 176.527 327.221 176.527H511.304C512.208 176.527 513.075 176.166 513.715 175.524C514.354 174.882 514.713 174.011 514.713 173.103C514.713 172.195 514.354 171.324 513.715 170.682C513.075 170.04 512.208 169.679 511.304 169.679H327.221Z" fill="#01579A"/>
<path d="M327.221 191.469C326.317 191.469 325.45 191.83 324.811 192.472C324.172 193.114 323.812 193.985 323.812 194.893C323.812 195.801 324.172 196.672 324.811 197.314C325.45 197.957 326.317 198.317 327.221 198.317H511.304C512.208 198.317 513.075 197.957 513.715 197.314C514.354 196.672 514.713 195.801 514.713 194.893C514.713 193.985 514.354 193.114 513.715 192.472C513.075 191.83 512.208 191.469 511.304 191.469H327.221Z" fill="#01579A"/>
<path d="M327.221 213.259C326.317 213.259 325.45 213.62 324.811 214.262C324.172 214.904 323.812 215.775 323.812 216.683C323.812 217.591 324.172 218.462 324.811 219.104C325.45 219.747 326.317 220.107 327.221 220.107H511.304C512.208 220.107 513.075 219.747 513.715 219.104C514.354 218.462 514.713 217.591 514.713 216.683C514.713 215.775 514.354 214.904 513.715 214.262C513.075 213.62 512.208 213.259 511.304 213.259H327.221Z" fill="#01579A"/>
<path d="M33.6071 189.628C51.9273 189.628 66.7787 174.711 66.7787 156.309C66.7787 137.907 51.9273 122.989 33.6071 122.989C15.287 122.989 0.435547 137.907 0.435547 156.309C0.435547 174.711 15.287 189.628 33.6071 189.628Z" fill="#F0D4D1"/>
<path d="M28.3801 363.841H19.2319C18.1638 363.839 17.1397 363.413 16.3845 362.654C15.6292 361.895 15.2044 360.867 15.2031 359.794V283.208C15.2044 282.135 15.6292 281.107 16.3845 280.348C17.1397 279.59 18.1638 279.163 19.2319 279.162H28.3801C29.4482 279.163 30.4722 279.59 31.2275 280.348C31.9827 281.107 32.4076 282.135 32.4088 283.208V359.794C32.4076 360.867 31.9827 361.895 31.2275 362.654C30.4722 363.413 29.4482 363.839 28.3801 363.841V363.841Z" fill="#474242"/>
<path d="M46.4738 363.841H37.3256C36.2575 363.839 35.2335 363.413 34.4782 362.654C33.723 361.895 33.2981 360.867 33.2969 359.794V283.208C33.2981 282.135 33.723 281.107 34.4782 280.348C35.2335 279.59 36.2575 279.163 37.3256 279.162H46.4738C47.5419 279.163 48.5659 279.59 49.3212 280.348C50.0765 281.107 50.5013 282.135 50.5026 283.208V359.794C50.5013 360.867 50.0765 361.895 49.3212 362.654C48.5659 363.413 47.5419 363.839 46.4738 363.841Z" fill="#474242"/>
<path d="M54.013 291.901H12.4472C11.3791 291.899 10.3551 291.473 9.59981 290.714C8.84454 289.955 8.41969 288.927 8.41846 287.854V217.442C8.42515 211.52 10.7701 205.843 14.9389 201.655C19.1076 197.468 24.7597 195.113 30.6553 195.106H54.013C55.0811 195.107 56.1051 195.534 56.8604 196.293C57.6157 197.051 58.0405 198.08 58.0418 199.153V287.854C58.0405 288.927 57.6157 289.955 56.8604 290.714C56.1051 291.473 55.0811 291.899 54.013 291.901V291.901Z" fill="#01579A"/>
<path d="M71.9874 286.407C71.2549 286.406 70.5364 286.206 69.9086 285.827C69.2808 285.448 68.7674 284.904 68.4232 284.255L32.682 216.605C32.1826 215.657 32.078 214.548 32.3912 213.523C32.7043 212.497 33.4097 211.638 34.3526 211.134L42.4331 206.827C43.3772 206.325 44.4809 206.22 45.5021 206.534C46.5232 206.849 47.3786 207.557 47.8806 208.504L83.6215 276.153C84.1211 277.102 84.2257 278.21 83.9126 279.236C83.5995 280.262 82.8942 281.121 81.9513 281.625L73.8705 285.933C73.2909 286.243 72.6443 286.406 71.9874 286.407Z" fill="#F0D4D1"/>
<path d="M30.1104 216.462L45.7807 244.535C46.1728 245.41 46.8854 246.101 47.7707 246.462C48.656 246.824 49.646 246.83 50.5353 246.478L63.4782 241.356C63.9895 241.154 64.4497 240.841 64.8259 240.438C65.2021 240.036 65.4849 239.555 65.6538 239.03C65.8228 238.504 65.8738 237.948 65.8031 237.401C65.7324 236.853 65.5419 236.328 65.2451 235.864L47.8616 207.404C47.3982 206.53 46.6091 205.876 45.667 205.586C44.7249 205.295 43.7065 205.391 42.8349 205.853L31.6536 211.407C30.7822 211.872 30.1303 212.666 29.8409 213.614C29.5516 214.562 29.6485 215.586 30.1104 216.462V216.462Z" fill="#01579A"/>
</svg>
