<svg width="568" height="390" viewBox="0 0 568 390" fill="none" xmlns="http://www.w3.org/2000/svg">
<g clip-path="url(#clip0_510_149)">
<path d="M328.378 19.4366C333.147 28.8425 323.042 31.5068 311.467 36.5482C299.892 41.5897 291.229 47.0993 286.461 37.6933C281.692 28.2874 277.823 9.61841 294.198 2.4864C311.137 -4.89131 323.61 10.0307 328.378 19.4366Z" fill="#43464B"/>
<path d="M304.763 37.935C313.369 37.935 320.345 31.4686 320.345 23.4919C320.345 15.5152 313.369 9.04883 304.763 9.04883C296.156 9.04883 289.18 15.5152 289.18 23.4919C289.18 31.4686 296.156 37.935 304.763 37.935Z" fill="#AE8D8A"/>
<path d="M381.96 87.5475C381.421 86.8947 380.881 86.2538 380.336 85.6304C379.632 84.8189 378.923 84.0329 378.21 83.2724C370.134 74.634 361.543 69.1945 352.084 68.6123H352.071L351.931 68.6006L333.082 85.6304L326.674 91.4168L326.814 91.7344L330.271 99.7142H390.855C388.125 95.5151 385.156 91.4538 381.96 87.5475Z" fill="#43464B"/>
<path d="M287.817 29.3063L293.395 26.8768L292.618 19.4184L296.348 25.5907L299.014 24.4295L298.561 20.0787L300.736 23.6792L320.547 15.051C318.686 11.381 315.329 8.54646 311.213 7.17084C307.098 5.79522 302.561 5.99124 298.602 7.71578L295.731 8.96625C291.771 10.6908 288.713 13.8026 287.229 17.6171C285.745 21.4316 285.956 25.6363 287.817 29.3063Z" fill="#43464B"/>
<path d="M416.922 291.488H91.5495C88.7741 291.485 86.1132 290.462 84.1507 288.643C82.1881 286.824 81.0842 284.357 81.0811 281.785V100.565C81.0833 98.6805 81.892 96.8736 83.3298 95.5409C84.7676 94.2082 86.7169 93.4585 88.7503 93.4563H419.588C421.657 93.4585 423.64 94.2211 425.103 95.5769C426.565 96.9326 427.388 98.7708 427.39 100.688V281.785C427.387 284.357 426.283 286.824 424.321 288.643C422.358 290.462 419.697 291.485 416.922 291.488Z" fill="#33363B"/>
<path d="M427.243 100.009H80.9326V95.0695C80.9366 92.4885 82.0451 90.0143 84.0148 88.1898C85.9845 86.3654 88.6545 85.3395 91.4392 85.3374H416.737C419.521 85.3395 422.191 86.3653 424.161 88.1898C426.131 90.0143 427.239 92.4885 427.243 95.0695V100.009Z" fill="#212227"/>
<path d="M100.028 95.2068C101.529 95.2068 102.746 94.0791 102.746 92.6879C102.746 91.2968 101.529 90.1691 100.028 90.1691C98.5273 90.1691 97.3105 91.2968 97.3105 92.6879C97.3105 94.0791 98.5273 95.2068 100.028 95.2068Z" fill="white"/>
<path d="M110.343 95.2068C111.844 95.2068 113.061 94.0791 113.061 92.6879C113.061 91.2968 111.844 90.1691 110.343 90.1691C108.842 90.1691 107.625 91.2968 107.625 92.6879C107.625 94.0791 108.842 95.2068 110.343 95.2068Z" fill="white"/>
<path d="M120.657 95.2068C122.158 95.2068 123.375 94.0791 123.375 92.6879C123.375 91.2968 122.158 90.1691 120.657 90.1691C119.156 90.1691 117.939 91.2968 117.939 92.6879C117.939 94.0791 119.156 95.2068 120.657 95.2068Z" fill="white"/>
<path d="M263.753 248.426H236.472C234.874 248.424 233.342 247.835 232.212 246.788C231.082 245.741 230.446 244.321 230.444 242.84V217.553C230.446 216.072 231.082 214.652 232.212 213.605C233.342 212.558 234.874 211.969 236.472 211.967H263.753C265.351 211.969 266.883 212.558 268.013 213.605C269.143 214.652 269.779 216.072 269.78 217.553V242.84C269.779 244.321 269.143 245.741 268.013 246.788C266.883 247.835 265.351 248.424 263.753 248.426ZM236.472 213.143C235.21 213.144 234.001 213.609 233.108 214.436C232.216 215.263 231.715 216.384 231.713 217.553V242.84C231.715 244.009 232.216 245.13 233.108 245.957C234.001 246.783 235.21 247.249 236.472 247.25H263.753C265.015 247.249 266.224 246.783 267.116 245.957C268.008 245.13 268.51 244.009 268.512 242.84V217.553C268.51 216.384 268.008 215.263 267.116 214.436C266.224 213.609 265.015 213.144 263.753 213.143H236.472Z" fill="white"/>
<path d="M258.359 241.37H241.863C241.359 241.369 240.875 241.183 240.518 240.852C240.161 240.522 239.961 240.073 239.96 239.606V220.788C239.961 220.32 240.161 219.872 240.518 219.541C240.875 219.21 241.359 219.024 241.863 219.024H253.816C254.25 219.024 254.67 219.161 255.008 219.413L259.551 222.797C259.774 222.961 259.953 223.171 260.076 223.409C260.2 223.647 260.263 223.908 260.263 224.172V239.606C260.262 240.073 260.061 240.522 259.704 240.852C259.348 241.183 258.864 241.369 258.359 241.37ZM241.863 220.2C241.695 220.2 241.534 220.262 241.415 220.372C241.296 220.483 241.229 220.632 241.229 220.788V239.606C241.229 239.761 241.296 239.911 241.415 240.021C241.534 240.131 241.695 240.193 241.863 240.194H258.359C258.527 240.193 258.689 240.131 258.808 240.021C258.926 239.911 258.993 239.761 258.994 239.606V224.172C258.994 224.084 258.973 223.997 258.932 223.917C258.891 223.838 258.831 223.768 258.757 223.713L254.213 220.329C254.101 220.246 253.96 220.2 253.816 220.2H241.863Z" fill="white"/>
<path d="M255.187 227.257H245.036C244.868 227.257 244.706 227.195 244.587 227.085C244.468 226.975 244.401 226.825 244.401 226.669C244.401 226.513 244.468 226.364 244.587 226.254C244.706 226.143 244.868 226.081 245.036 226.081H255.187C255.355 226.081 255.517 226.143 255.636 226.254C255.755 226.364 255.821 226.513 255.821 226.669C255.821 226.825 255.755 226.975 255.636 227.085C255.517 227.195 255.355 227.257 255.187 227.257Z" fill="white"/>
<path d="M255.187 230.786H245.036C244.868 230.786 244.706 230.724 244.587 230.613C244.468 230.503 244.401 230.354 244.401 230.198C244.401 230.042 244.468 229.892 244.587 229.782C244.706 229.672 244.868 229.61 245.036 229.61H255.187C255.355 229.61 255.517 229.672 255.636 229.782C255.755 229.892 255.821 230.042 255.821 230.198C255.821 230.354 255.755 230.503 255.636 230.613C255.517 230.724 255.355 230.786 255.187 230.786Z" fill="white"/>
<path d="M255.187 234.314H245.036C244.868 234.314 244.706 234.252 244.587 234.141C244.468 234.031 244.401 233.881 244.401 233.726C244.401 233.57 244.468 233.42 244.587 233.31C244.706 233.199 244.868 233.137 245.036 233.137H255.187C255.355 233.137 255.517 233.199 255.636 233.31C255.755 233.42 255.821 233.57 255.821 233.726C255.821 233.881 255.755 234.031 255.636 234.141C255.517 234.252 255.355 234.314 255.187 234.314Z" fill="white"/>
<path d="M328.469 248.426H301.187C299.589 248.424 298.057 247.835 296.928 246.788C295.798 245.741 295.162 244.321 295.16 242.84V217.553C295.162 216.072 295.798 214.652 296.928 213.605C298.057 212.558 299.589 211.969 301.187 211.967H328.469C330.067 211.969 331.599 212.558 332.729 213.605C333.859 214.652 334.494 216.072 334.496 217.553V242.84C334.494 244.321 333.859 245.741 332.729 246.788C331.599 247.835 330.067 248.424 328.469 248.426ZM301.187 213.143C299.926 213.144 298.716 213.609 297.824 214.436C296.932 215.263 296.43 216.384 296.429 217.553V242.84C296.43 244.009 296.932 245.13 297.824 245.957C298.716 246.783 299.926 247.249 301.187 247.25H328.469C329.73 247.249 330.94 246.783 331.832 245.957C332.724 245.13 333.226 244.009 333.227 242.84V217.553C333.226 216.384 332.724 215.263 331.832 214.436C330.94 213.609 329.73 213.144 328.469 213.143H301.187Z" fill="white"/>
<path d="M323.71 236.666H305.945C305.441 236.665 304.957 236.479 304.6 236.148C304.243 235.818 304.043 235.369 304.042 234.901V225.493C304.043 225.025 304.243 224.576 304.6 224.246C304.957 223.915 305.441 223.729 305.945 223.728H323.71C324.215 223.729 324.699 223.915 325.055 224.246C325.412 224.576 325.613 225.025 325.613 225.493V234.901C325.613 235.369 325.412 235.818 325.055 236.148C324.699 236.479 324.215 236.665 323.71 236.666ZM305.945 224.905C305.777 224.905 305.616 224.967 305.497 225.077C305.378 225.187 305.311 225.337 305.311 225.493V234.901C305.311 235.057 305.378 235.207 305.497 235.317C305.616 235.427 305.777 235.489 305.945 235.489H323.71C323.878 235.489 324.04 235.427 324.159 235.317C324.277 235.207 324.344 235.057 324.345 234.901V225.493C324.344 225.337 324.277 225.187 324.159 225.077C324.04 224.967 323.878 224.905 323.71 224.905H305.945Z" fill="white"/>
<path d="M314.827 231.748C314.47 231.749 314.121 231.656 313.818 231.482L304.339 225.991C304.197 225.908 304.096 225.776 304.058 225.625C304.02 225.473 304.049 225.313 304.139 225.181C304.228 225.049 304.37 224.955 304.533 224.92C304.697 224.885 304.869 224.911 305.012 224.994L314.491 230.484C314.592 230.542 314.708 230.573 314.827 230.573C314.946 230.573 315.062 230.542 315.163 230.484L324.642 224.994C324.784 224.911 324.956 224.885 325.12 224.92C325.284 224.955 325.426 225.049 325.515 225.181C325.604 225.313 325.633 225.473 325.596 225.625C325.558 225.776 325.457 225.908 325.315 225.991L315.836 231.482C315.533 231.656 315.184 231.749 314.827 231.748Z" fill="white"/>
<path d="M199.04 248.426H171.759C170.161 248.424 168.629 247.835 167.499 246.788C166.369 245.741 165.733 244.321 165.731 242.84V217.553C165.733 216.072 166.369 214.652 167.499 213.605C168.629 212.558 170.161 211.969 171.759 211.967H199.04C200.638 211.969 202.17 212.558 203.3 213.605C204.43 214.652 205.066 216.072 205.068 217.553V242.84C205.066 244.321 204.43 245.741 203.3 246.788C202.17 247.835 200.638 248.424 199.04 248.426ZM171.759 213.143C170.497 213.144 169.288 213.609 168.396 214.436C167.504 215.263 167.002 216.384 167 217.553V242.84C167.002 244.009 167.504 245.13 168.396 245.957C169.288 246.783 170.497 247.249 171.759 247.25H199.04C200.302 247.249 201.511 246.783 202.403 245.957C203.296 245.13 203.797 244.009 203.799 242.84V217.553C203.797 216.384 203.296 215.263 202.403 214.436C201.511 213.609 200.302 213.144 199.04 213.143H171.759Z" fill="white"/>
<path d="M194.28 236.666H176.516C176.011 236.665 175.527 236.479 175.17 236.148C174.814 235.818 174.613 235.369 174.612 234.901V225.493C174.613 225.025 174.814 224.576 175.17 224.246C175.527 223.915 176.011 223.729 176.516 223.728H194.28C194.785 223.729 195.269 223.915 195.626 224.246C195.982 224.576 196.183 225.025 196.184 225.493V234.901C196.183 235.369 195.982 235.818 195.626 236.148C195.269 236.479 194.785 236.665 194.28 236.666ZM176.516 224.905C176.347 224.905 176.186 224.967 176.067 225.077C175.948 225.187 175.881 225.337 175.881 225.493V234.901C175.881 235.057 175.948 235.207 176.067 235.317C176.186 235.427 176.347 235.489 176.516 235.49H194.28C194.449 235.489 194.61 235.427 194.729 235.317C194.848 235.207 194.915 235.057 194.915 234.901V225.493C194.915 225.337 194.848 225.187 194.729 225.077C194.61 224.967 194.449 224.905 194.28 224.905H176.516Z" fill="white"/>
<path d="M191.466 236.666H178.699C178.476 236.666 178.257 236.612 178.064 236.508C177.871 236.405 177.711 236.257 177.6 236.078C177.488 235.899 177.43 235.696 177.43 235.49C177.43 235.283 177.488 235.081 177.6 234.902L181.446 228.727C181.557 228.548 181.717 228.4 181.91 228.297C182.103 228.194 182.322 228.139 182.545 228.139C182.767 228.139 182.986 228.194 183.179 228.297C183.372 228.4 183.532 228.548 183.644 228.727L186.127 232.715L187.566 230.405C187.678 230.226 187.838 230.077 188.031 229.974C188.224 229.871 188.443 229.817 188.665 229.817C188.888 229.817 189.107 229.871 189.3 229.974C189.493 230.077 189.653 230.226 189.764 230.405L192.566 234.902C192.677 235.081 192.736 235.283 192.736 235.49C192.736 235.696 192.677 235.899 192.565 236.078C192.454 236.257 192.294 236.405 192.101 236.508C191.908 236.612 191.689 236.666 191.466 236.666H191.466ZM191.466 235.49L188.665 230.993L186.677 234.185C186.621 234.274 186.541 234.349 186.445 234.4C186.348 234.452 186.239 234.479 186.128 234.479C186.016 234.479 185.907 234.452 185.81 234.4C185.714 234.349 185.634 234.274 185.578 234.185L182.545 229.315L178.699 235.49H191.466Z" fill="white"/>
<path d="M192.375 228.433C193.074 228.433 193.642 227.907 193.642 227.257C193.642 226.608 193.074 226.081 192.375 226.081C191.675 226.081 191.107 226.608 191.107 227.257C191.107 227.907 191.675 228.433 192.375 228.433Z" fill="white"/>
<path d="M495.782 381.668L488.004 381.667L484.304 353.86L495.784 353.86L495.782 381.668Z" fill="#CAABA8"/>
<g filter="url(#filter0_b_510_149)">
<path d="M497.767 388.658L472.687 388.657V388.363C472.687 387.175 472.939 385.999 473.43 384.901C473.921 383.803 474.64 382.806 475.546 381.965C476.453 381.125 477.529 380.459 478.713 380.004C479.898 379.549 481.167 379.315 482.449 379.315H482.45L497.768 379.316L497.767 388.658Z" fill="white"/>
<path d="M482.45 380.805L496.278 380.806L496.277 387.168L474.281 387.167C474.381 386.601 474.551 386.044 474.79 385.509C475.197 384.6 475.796 383.766 476.559 383.058C477.323 382.35 478.235 381.784 479.247 381.395C480.259 381.007 481.348 380.805 482.449 380.805H482.449H482.45H482.45Z" stroke="#006DBA" stroke-opacity="0.8" stroke-width="2.97988"/>
</g>
<path d="M527.507 381.668L519.728 381.667L516.028 353.86L527.508 353.86L527.507 381.668Z" fill="#AE8D8A"/>
<path d="M529.49 388.658L504.409 388.657V388.363C504.409 387.175 504.662 385.999 505.152 384.901C505.643 383.803 506.362 382.806 507.268 381.965C508.175 381.125 509.251 380.459 510.435 380.004C511.62 379.549 512.889 379.315 514.171 379.315L529.49 379.316L529.49 388.658Z" fill="white"/>
<path d="M514.171 380.805L528 380.806L528 387.168L506.003 387.167C506.103 386.601 506.273 386.044 506.512 385.509C506.919 384.6 507.518 383.766 508.281 383.058C509.045 382.35 509.957 381.784 510.969 381.395C511.982 381.007 513.07 380.805 514.171 380.805C514.171 380.805 514.171 380.805 514.171 380.805Z" stroke="#006DBA" stroke-opacity="0.8" stroke-width="2.97988"/>
<path d="M525.172 369.615L517.968 367.584C517.431 367.433 516.954 367.138 516.597 366.738C516.239 366.337 516.018 365.847 515.959 365.33L509.243 306.33C509.238 306.258 509.204 306.191 509.147 306.143C509.091 306.094 509.017 306.067 508.94 306.067C508.862 306.06 508.785 306.081 508.725 306.126C508.664 306.171 508.625 306.236 508.616 306.307L497.366 363.468C497.298 363.815 497.155 364.146 496.947 364.441C496.739 364.736 496.47 364.99 496.154 365.187C495.839 365.384 495.484 365.521 495.111 365.589C494.738 365.658 494.354 365.656 493.981 365.585L484.775 363.827C484.099 363.696 483.498 363.344 483.08 362.835C482.663 362.326 482.458 361.694 482.502 361.056L489.345 267.367L535.748 262.727L528.853 367.244C528.808 367.916 528.489 368.547 527.96 369.009C527.432 369.471 526.734 369.729 526.007 369.73C525.724 369.73 525.443 369.691 525.172 369.615Z" fill="#212227"/>
<path d="M525.128 185.778C533.734 185.778 540.711 179.312 540.711 171.335C540.711 163.358 533.734 156.892 525.128 156.892C516.522 156.892 509.545 163.358 509.545 171.335C509.545 179.312 516.522 185.778 525.128 185.778Z" fill="#AE8D8A"/>
<path d="M489.272 267.918L499.334 209.197C499.869 206.075 501.115 203.094 502.989 200.454C504.864 197.813 507.324 195.572 510.205 193.881C513.086 192.189 516.323 191.086 519.7 190.645C523.078 190.203 526.517 190.433 529.791 191.32C535.515 192.854 540.416 196.312 543.537 201.016C546.657 205.721 547.774 211.335 546.668 216.762L536.142 269.202L489.272 267.918Z" fill="#33363B"/>
<path d="M529.433 278.422C530.211 277.946 530.867 277.317 531.355 276.58C531.843 275.843 532.151 275.016 532.256 274.157C532.362 273.299 532.263 272.429 531.967 271.609C531.67 270.789 531.184 270.04 530.541 269.413L540.944 250.742L529.229 251.901L521.146 269.454C520.082 270.524 519.479 271.919 519.45 273.374C519.422 274.829 519.97 276.244 520.992 277.349C522.013 278.455 523.437 279.175 524.992 279.372C526.548 279.57 528.128 279.232 529.433 278.422V278.422Z" fill="#AE8D8A"/>
<path d="M531.66 266.121C531.085 266.046 530.548 265.81 530.121 265.444L526.141 262.035C525.711 261.665 525.414 261.182 525.29 260.65C525.166 260.119 525.221 259.565 525.448 259.063L533.402 241.586L532.274 207.054C532.436 205.944 532.833 204.875 533.441 203.907C534.05 202.939 534.858 202.092 535.82 201.413C536.782 200.735 537.878 200.239 539.047 199.954C540.216 199.669 541.434 199.6 542.631 199.752C543.828 199.903 544.982 200.272 546.026 200.837C547.069 201.401 547.983 202.151 548.713 203.044C549.444 203.936 549.978 204.953 550.284 206.036C550.591 207.12 550.664 208.249 550.5 209.359L552.429 231.066C553.016 237.654 551.001 244.216 546.759 249.53L534.354 265.074C534.115 265.373 533.811 265.622 533.462 265.805C533.113 265.988 532.726 266.1 532.327 266.135C532.105 266.155 531.881 266.15 531.66 266.121Z" fill="#212227"/>
<path d="M435.391 163.464C435.561 164.315 435.93 165.12 436.472 165.823C437.014 166.527 437.715 167.112 438.527 167.537C439.34 167.962 440.242 168.217 441.172 168.284C442.102 168.35 443.037 168.227 443.91 167.923L458.404 184.082L461.821 173.631L447.533 159.889C446.884 158.563 445.733 157.504 444.299 156.912C442.864 156.321 441.245 156.237 439.748 156.678C438.252 157.119 436.982 158.053 436.179 159.304C435.376 160.555 435.095 162.035 435.391 163.464Z" fill="#AE8D8A"/>
<path d="M446.747 170.164C447.046 169.702 447.49 169.336 448.019 169.114L452.958 167.046C453.493 166.823 454.089 166.758 454.665 166.86C455.242 166.961 455.771 167.224 456.181 167.613L470.442 181.216L505.188 193.716C506.228 194.287 507.136 195.043 507.861 195.939C508.586 196.836 509.113 197.856 509.411 198.942C509.71 200.027 509.775 201.157 509.603 202.266C509.431 203.374 509.024 204.441 508.407 205.404C507.789 206.367 506.973 207.208 506.005 207.879C505.037 208.549 503.935 209.036 502.764 209.312C501.592 209.588 500.374 209.647 499.178 209.486C497.981 209.325 496.831 208.947 495.793 208.374L473.475 201.557C466.701 199.489 460.968 195.211 457.342 189.519L446.736 172.871C446.532 172.551 446.404 172.194 446.358 171.825C446.313 171.456 446.352 171.082 446.473 170.727C446.54 170.53 446.632 170.341 446.747 170.164Z" fill="#212227"/>
<path d="M523.345 174.049C522.366 174.167 521.374 173.951 520.554 173.443C519.734 172.934 519.14 172.167 518.884 171.284C518.637 170.267 518.096 169.332 517.319 168.578C516.542 167.825 515.559 167.281 514.474 167.006C511.616 166.401 508.122 167.648 506.027 165.641C505.579 165.182 505.255 164.632 505.081 164.035C504.907 163.437 504.889 162.81 505.028 162.205C505.414 160.254 506.919 158.781 508.558 157.602C512.005 155.133 516.178 153.688 520.527 153.456C522.779 153.396 525.032 153.5 527.266 153.767C529.605 153.904 531.918 154.295 534.158 154.934C536.71 155.827 538.978 157.301 540.753 159.221C542.527 161.141 543.751 163.445 544.311 165.919C544.823 168.401 544.744 170.957 544.08 173.407C543.416 175.858 542.184 178.145 540.468 180.109C538.413 182.48 535.765 184.349 532.752 185.554C532.035 185.867 531.212 185.906 530.464 185.661C528.588 184.97 528.895 182.815 529.75 181.379C530.666 179.841 532.074 178.352 531.338 176.481C530.969 175.613 530.261 174.906 529.354 174.501C527.489 173.62 525.403 173.828 523.397 174.043L523.345 174.049Z" fill="#33363B"/>
<path d="M430.184 182.207H237.31C234.534 182.204 231.873 181.181 229.911 179.361C227.948 177.542 226.844 175.076 226.841 172.503V134.278C226.844 131.705 227.948 129.239 229.911 127.42C231.873 125.601 234.534 124.578 237.31 124.575H430.184C432.959 124.578 435.62 125.601 437.583 127.42C439.545 129.239 440.649 131.705 440.652 134.278V172.503C440.649 175.076 439.545 177.542 437.583 179.361C435.62 181.18 432.959 182.204 430.184 182.207Z" fill="white"/>
<path d="M430.188 182.501H237.314C234.454 182.498 231.713 181.443 229.691 179.569C227.669 177.695 226.532 175.154 226.528 172.503V134.278C226.532 131.627 227.669 129.086 229.691 127.212C231.713 125.338 234.454 124.284 237.314 124.281H430.188C433.048 124.284 435.789 125.338 437.811 127.212C439.833 129.086 440.971 131.627 440.974 134.278V172.503C440.971 175.154 439.833 177.695 437.811 179.569C435.789 181.443 433.048 182.498 430.188 182.501ZM237.314 125.457C234.791 125.459 232.372 126.39 230.588 128.043C228.804 129.697 227.8 131.939 227.797 134.278V172.503C227.8 174.842 228.804 177.084 230.588 178.738C232.372 180.392 234.791 181.322 237.314 181.324H430.188C432.711 181.322 435.13 180.392 436.914 178.738C438.698 177.084 439.702 174.842 439.705 172.503V134.278C439.702 131.939 438.698 129.697 436.914 128.043C435.13 126.39 432.711 125.459 430.188 125.457H237.314Z" fill="#212227"/>
<path d="M406.708 172.794H260.784C258.008 172.791 255.348 171.768 253.385 169.949C251.422 168.13 250.319 165.664 250.315 163.091V143.098C250.319 140.525 251.422 138.059 253.385 136.24C255.348 134.421 258.008 133.398 260.784 133.395H406.708C409.484 133.398 412.145 134.421 414.107 136.24C416.07 138.059 417.174 140.525 417.177 143.098V163.091C417.174 165.664 416.07 168.13 414.107 169.949C412.145 171.768 409.484 172.791 406.708 172.794Z" fill="white"/>
<path d="M292.188 162.018C299.102 162.018 304.707 156.823 304.707 150.415C304.707 144.006 299.102 138.811 292.188 138.811C285.274 138.811 279.669 144.006 279.669 150.415C279.669 156.823 285.274 162.018 292.188 162.018Z" fill="#006DBA" fill-opacity="0.8"/>
<path d="M397.642 171.624L379.971 157.888L362.605 144.388C362.146 144.032 361.567 143.837 360.969 143.838C360.371 143.839 359.792 144.036 359.335 144.394L342.025 157.955L337.797 161.268L331.422 156.312L312.048 141.252C311.59 140.896 311.01 140.701 310.412 140.702C309.814 140.703 309.236 140.9 308.779 141.258L289.467 156.387L269.852 171.755C269.753 171.833 269.681 171.937 269.648 172.054C269.615 172.17 269.621 172.294 269.666 172.407C269.711 172.52 269.792 172.618 269.899 172.687C270.006 172.756 270.133 172.792 270.263 172.792L310.479 172.72L323.208 172.698L323.084 172.795L361.029 172.727L397.235 172.663C397.365 172.663 397.492 172.625 397.599 172.556C397.705 172.487 397.786 172.389 397.831 172.275C397.875 172.162 397.881 172.039 397.847 171.922C397.813 171.806 397.741 171.702 397.642 171.624Z" fill="#006DBA"/>
<path d="M563.318 389.505H441.503C441.335 389.505 441.173 389.443 441.054 389.333C440.936 389.222 440.869 389.073 440.869 388.917C440.869 388.761 440.936 388.611 441.054 388.501C441.173 388.391 441.335 388.329 441.503 388.329H563.318C563.486 388.329 563.648 388.391 563.767 388.501C563.886 388.611 563.953 388.761 563.953 388.917C563.953 389.073 563.886 389.222 563.767 389.333C563.648 389.443 563.486 389.505 563.318 389.505Z" fill="#212227"/>
<path d="M391.242 78.0777C390.736 77.3145 390.066 76.6549 389.276 76.1393C388.485 75.6237 387.589 75.2628 386.643 75.0786C386.296 75.0111 385.944 74.9698 385.59 74.9552L337.25 34.8973C336.301 33.9928 335.034 33.4319 333.679 33.3155C333.411 33.287 333.142 33.2791 332.873 33.292C331.758 33.3389 330.681 33.6861 329.775 34.291C328.869 34.8959 328.173 35.7323 327.772 36.698C327.371 37.6637 327.282 38.7168 327.517 39.7286C327.751 40.7403 328.298 41.6669 329.091 42.3949L347.598 57.349L377.989 81.9C378.014 82.3624 378.088 82.8214 378.211 83.2701C378.574 84.5703 379.356 85.7372 380.452 86.6162C381.547 87.4952 382.905 88.0448 384.346 88.1921C385.66 88.3343 386.99 88.1305 388.184 87.604C389.131 87.1935 389.971 86.5977 390.646 85.8575C390.716 85.7811 390.779 85.7105 390.843 85.6282C391.73 84.5567 392.243 83.2599 392.315 81.9108C392.386 80.5617 392.012 79.2246 391.242 78.0777H391.242Z" fill="#AE8D8A"/>
<path d="M308.562 116.687L308.112 99.7151L307.731 85.6305L307.471 75.7743L306.957 56.5616C306.855 55.533 306.433 54.554 305.741 53.7442C305.049 52.9345 304.118 52.3289 303.061 52.0015C302.004 51.6741 300.867 51.639 299.789 51.9005C298.711 52.1621 297.738 52.7089 296.99 53.4742C296.814 53.6491 296.654 53.838 296.514 54.0388C295.733 55.0757 295.382 56.3389 295.524 57.5966L296.654 85.6305L297.219 99.7151L297.942 117.681C297.733 117.945 297.544 118.222 297.377 118.51C296.926 119.303 296.653 120.173 296.576 121.067C296.498 121.96 296.618 122.859 296.927 123.709C297.249 124.6 297.771 125.417 298.459 126.108C299.147 126.798 299.985 127.345 300.918 127.714C301.85 128.082 302.857 128.263 303.87 128.245C304.884 128.227 305.882 128.009 306.798 127.608C307.863 127.141 308.787 126.439 309.489 125.563C310.192 124.686 310.65 123.663 310.825 122.584C310.999 121.504 310.884 120.402 310.489 119.373C310.095 118.345 309.433 117.422 308.562 116.687H308.562Z" fill="#AE8D8A"/>
<path d="M352.085 68.6103L347.599 57.3491L340.341 39.1079C339.817 37.7807 338.978 36.5798 337.885 35.5944C336.792 34.6089 335.474 33.8643 334.028 33.4156C333.914 33.3803 333.793 33.345 333.679 33.3156C332.278 32.9216 330.802 32.8132 329.352 32.998C327.902 33.1827 326.513 33.6562 325.279 34.3858L300.833 48.7577C298.594 50.0709 296.994 52.1393 296.37 54.5259C295.746 56.9125 296.148 59.4304 297.49 61.5478C300.547 66.4473 303.878 71.1954 307.47 75.7727C310.318 79.3656 315.622 79.7479 316.542 85.6283H334.567L352.814 70.4449L352.085 68.6103Z" fill="white"/>
<path d="M72.1838 206.246C80.3031 206.246 86.8851 200.146 86.8851 192.62C86.8851 185.095 80.3031 178.994 72.1838 178.994C64.0644 178.994 57.4824 185.095 57.4824 192.62C57.4824 200.146 64.0644 206.246 72.1838 206.246Z" fill="#936F6C"/>
<path d="M108.276 183.241C108.421 183.348 108.561 183.461 108.697 183.581C109.373 184.17 109.906 184.885 110.262 185.679C110.618 186.474 110.79 187.328 110.765 188.188C110.74 189.048 110.519 189.893 110.117 190.668C109.715 191.443 109.141 192.131 108.433 192.686C108.267 192.814 108.095 192.935 107.916 193.046L108.911 224.18C108.94 225.2 108.613 226.2 107.979 227.034C107.345 227.867 106.438 228.489 105.393 228.807L105.333 228.819L78.0582 231.511C77.3167 231.584 76.5669 231.52 75.8521 231.323C75.1373 231.126 74.4718 230.8 73.8938 230.363C73.3158 229.926 72.8369 229.388 72.4847 228.779C72.1326 228.17 71.9141 227.502 71.8419 226.814C71.7698 226.126 71.8454 225.432 72.0643 224.771C72.2833 224.11 72.6413 223.496 73.1177 222.965C73.594 222.433 74.1793 221.994 74.8398 221.673C75.5002 221.352 76.2227 221.156 76.9655 221.095L96.4079 219.508L99.7703 192.545C99.5503 192.365 99.3444 192.17 99.1539 191.963C98.0997 190.807 97.5467 189.328 97.6025 187.815C97.6582 186.302 98.3187 184.862 99.4556 183.775C100.592 182.688 102.125 182.031 103.755 181.933C105.385 181.834 106.996 182.3 108.276 183.241H108.276Z" fill="#936F6C"/>
<path d="M96.3958 382.27H103.735L107.225 356.036H96.3945L96.3958 382.27Z" fill="#936F6C"/>
<path d="M108.977 381.541H108.977C110.005 381.541 111.022 381.729 111.967 382.092C112.912 382.455 113.764 382.984 114.476 383.644L115.471 382.571L114.476 383.644C115.188 384.304 115.747 385.081 116.125 385.928C116.334 386.396 116.487 386.881 116.581 387.375L96.0147 387.375L96.0144 381.542L108.976 381.541H108.976H108.977Z" fill="white" stroke="#AE8D8A" stroke-width="2.97988"/>
<path d="M23.4565 372.866L29.7617 376.345L47.2428 355.459L37.9367 350.324L23.4565 372.866Z" fill="#936F6C"/>
<path d="M20.3254 377.111L23.576 372.05L34.7731 378.23C34.7731 378.23 34.7731 378.23 34.7731 378.23C35.6478 378.712 36.4043 379.346 37.0025 380.089C37.6005 380.832 38.0298 381.67 38.2718 382.555C38.5136 383.439 38.5649 384.356 38.4237 385.257C38.3385 385.8 38.1838 386.333 37.9628 386.844L20.3254 377.111Z" fill="white" stroke="#AE8D8A" stroke-width="2.97988"/>
<path d="M105.465 373.006H97.2476C96.5823 373.007 95.9401 372.779 95.4454 372.367C94.9507 371.954 94.6385 371.387 94.5693 370.773L86.2851 298.594C86.2642 298.412 86.1794 298.242 86.0437 298.109C85.9081 297.976 85.7291 297.889 85.5345 297.86C85.3399 297.831 85.1404 297.862 84.9667 297.949C84.7931 298.035 84.6551 298.172 84.5739 298.339L69.6291 329.013L43.1701 369.004C42.8276 369.516 42.2974 369.897 41.6765 370.077C41.0557 370.257 40.3856 370.224 39.7892 369.983L29.219 365.673C28.8695 365.53 28.5567 365.32 28.3014 365.057C28.046 364.794 27.8539 364.483 27.7378 364.146C27.6218 363.809 27.5843 363.453 27.6281 363.101C27.6718 362.749 27.7957 362.41 27.9915 362.106L52.3146 324.356L59.7742 292.55C57.4281 278.756 67.486 258.249 67.588 258.043L67.6379 257.943L95.3429 247.906L95.4818 248.064C106.408 281.298 113.066 317.064 108.15 370.718C108.089 371.341 107.781 371.92 107.284 372.343C106.788 372.766 106.139 373.002 105.465 373.006Z" fill="#282A2F"/>
<path d="M66.5225 261.301L66.3934 261.049C66.3318 260.929 60.1713 248.886 55.4225 236.015C54.5098 233.526 54.1648 230.889 54.4092 228.27C54.6537 225.651 55.4824 223.107 56.8427 220.8C58.2208 218.47 60.106 216.43 62.379 214.81C64.652 213.19 67.2633 212.025 70.0474 211.389C74.8806 210.315 79.9692 210.887 84.3861 212.999C88.8029 215.111 92.2541 218.624 94.1108 222.897C97.8777 231.628 96.6772 240.947 95.5474 248.276L95.5249 248.422L95.3808 248.486L66.5225 261.301Z" fill="#212227"/>
<path d="M90.0071 184.923H66.6631V175.491C71.7868 173.605 76.8007 172 79.8315 175.491C82.5302 175.491 85.1184 176.485 87.0267 178.254C88.935 180.022 90.0071 182.421 90.0071 184.923V184.923Z" fill="#33363B"/>
<path d="M65.3704 173.827C51.4149 173.827 47.5088 190.041 47.5088 199.187C47.5088 204.288 49.9977 206.113 53.9089 206.73L55.2901 199.902L58.5252 207.024C59.6238 207.029 60.778 207.009 61.9746 206.988L63.0714 204.895L65.5174 206.951C75.3139 206.964 83.2318 208.288 83.2318 199.187C83.2318 190.041 79.8061 173.827 65.3704 173.827Z" fill="#33363B"/>
<path d="M130.45 389.505H8.63445C8.46619 389.505 8.30481 389.443 8.18583 389.332C8.06684 389.222 8 389.072 8 388.916C8 388.761 8.06684 388.611 8.18583 388.501C8.30481 388.39 8.46619 388.328 8.63445 388.328H130.45C130.618 388.328 130.779 388.39 130.898 388.501C131.017 388.611 131.084 388.761 131.084 388.916C131.084 389.072 131.017 389.222 130.898 389.332C130.779 389.443 130.618 389.505 130.45 389.505Z" fill="#212227"/>
<path d="M132.739 196.024H105.458C103.86 196.023 102.328 195.434 101.198 194.386C100.068 193.339 99.4325 191.919 99.4307 190.438V165.152C99.4325 163.671 100.068 162.251 101.198 161.203C102.328 160.156 103.86 159.567 105.458 159.565H132.739C134.337 159.567 135.869 160.156 136.999 161.203C138.129 162.251 138.765 163.671 138.767 165.152V190.438C138.765 191.919 138.129 193.339 136.999 194.386C135.869 195.434 134.337 196.023 132.739 196.024Z" fill="white"/>
<path d="M132.739 196.024H105.458C103.86 196.023 102.328 195.434 101.198 194.386C100.068 193.339 99.4325 191.919 99.4307 190.438V165.152C99.4325 163.671 100.068 162.251 101.198 161.203C102.328 160.156 103.86 159.567 105.458 159.565H132.739C134.337 159.567 135.869 160.156 136.999 161.203C138.129 162.251 138.765 163.671 138.767 165.152V190.438C138.765 191.919 138.129 193.339 136.999 194.386C135.869 195.434 134.337 196.023 132.739 196.024ZM105.458 160.741C104.196 160.743 102.987 161.208 102.095 162.035C101.203 162.861 100.701 163.982 100.7 165.152V190.438C100.701 191.607 101.203 192.728 102.095 193.555C102.987 194.382 104.196 194.847 105.458 194.848H132.739C134.001 194.847 135.211 194.382 136.103 193.555C136.995 192.728 137.496 191.607 137.498 190.438V165.152C137.496 163.982 136.995 162.861 136.103 162.035C135.211 161.208 134.001 160.743 132.739 160.741H105.458Z" fill="white"/>
<path d="M127.982 185.734H110.217C109.712 185.734 109.228 185.547 108.872 185.217C108.515 184.886 108.314 184.438 108.313 183.97V171.621C108.314 171.153 108.515 170.705 108.872 170.374C109.228 170.043 109.712 169.857 110.217 169.857H115.218C115.543 169.856 115.863 169.932 116.147 170.079C116.431 170.226 116.669 170.439 116.839 170.696L118.234 172.797H127.982C128.486 172.798 128.97 172.984 129.327 173.314C129.684 173.645 129.884 174.093 129.885 174.561V183.97C129.884 184.438 129.684 184.886 129.327 185.217C128.97 185.547 128.486 185.734 127.982 185.734Z" fill="#006DBA" fill-opacity="0.8"/>
<path d="M127.4 191.974C127.489 192.124 127.571 192.279 127.646 192.438C128.022 193.225 128.214 194.076 128.21 194.936C128.206 195.796 128.006 196.645 127.623 197.428C127.24 198.212 126.683 198.911 125.988 199.481C125.293 200.051 124.476 200.478 123.59 200.735C123.384 200.794 123.175 200.843 122.963 200.882L110.846 229.934C110.445 230.883 109.725 231.688 108.792 232.228C107.859 232.768 106.763 233.015 105.666 232.932L105.606 232.922L79.3413 225.593C78.6272 225.394 77.9628 225.066 77.3865 224.627C76.8101 224.188 76.3332 223.648 75.9833 223.038C75.6334 222.428 75.4174 221.759 75.3479 221.071C75.2783 220.383 75.3565 219.688 75.578 219.028C75.7996 218.368 76.1599 217.756 76.6384 217.225C77.1169 216.695 77.7039 216.258 78.3657 215.94C79.0274 215.621 79.7507 215.427 80.4938 215.369C81.2369 215.31 81.9851 215.389 82.6951 215.601L101.278 221.13L115.666 197.49C115.538 197.245 115.43 196.991 115.341 196.732C114.854 195.287 114.963 193.725 115.648 192.351C116.333 190.977 117.544 189.887 119.047 189.294C120.55 188.701 122.237 188.647 123.781 189.142C125.324 189.637 126.614 190.646 127.4 191.974H127.4Z" fill="#936F6C"/>
</g>
<defs>
<filter id="filter0_b_510_149" x="460.768" y="367.396" width="48.9196" height="33.1817" filterUnits="userSpaceOnUse" color-interpolation-filters="sRGB">
<feFlood flood-opacity="0" result="BackgroundImageFix"/>
<feGaussianBlur in="BackgroundImage" stdDeviation="5.95975"/>
<feComposite in2="SourceAlpha" operator="in" result="effect1_backgroundBlur_510_149"/>
<feBlend mode="normal" in="SourceGraphic" in2="effect1_backgroundBlur_510_149" result="shape"/>
</filter>
<clipPath id="clip0_510_149">
<rect width="567.783" height="389" fill="white" transform="translate(0.0634766 0.504883)"/>
</clipPath>
</defs>
</svg>
