<svg width="179" height="113" viewBox="0 0 179 113" fill="none" xmlns="http://www.w3.org/2000/svg">
<g clip-path="url(#clip0_569_116)">
<path d="M170.984 109.448C170.189 110.52 169.203 111.436 168.076 112.151C167.836 112.303 167.59 112.446 167.34 112.579H161.449C161.52 112.437 161.588 112.294 161.655 112.151C163.481 108.296 164.054 103.967 163.292 99.7701C162.531 95.5735 160.473 91.721 157.409 88.7542C160.97 89.8541 164.261 91.9981 166.413 95.0388C167.459 96.5195 168.203 98.1919 168.602 99.9603C168.958 96.4236 168.393 92.8551 166.961 89.6016C169.852 91.9532 172.103 95.1736 172.961 98.7984C173.819 102.425 173.197 106.45 170.984 109.448Z" fill="#006DBA"/>
<path d="M124.871 3.42197H0.0532227V62.6502H124.871V3.42197Z" fill="#43464B"/>
<path d="M121.302 8.50089H3.62256V57.9168H121.302V8.50089Z" fill="white"/>
<path d="M124.818 0H0V5.30263H124.818V0Z" fill="#006DBA"/>
<path d="M3.94034 3.43553C4.48314 3.43553 4.92317 2.9955 4.92317 2.4527C4.92317 1.9099 4.48314 1.46988 3.94034 1.46988C3.39754 1.46988 2.95752 1.9099 2.95752 2.4527C2.95752 2.9955 3.39754 3.43553 3.94034 3.43553Z" fill="white"/>
<path d="M7.67081 3.43553C8.21361 3.43553 8.65363 2.9955 8.65363 2.4527C8.65363 1.9099 8.21361 1.46988 7.67081 1.46988C7.12801 1.46988 6.68799 1.9099 6.68799 2.4527C6.68799 2.9955 7.12801 3.43553 7.67081 3.43553Z" fill="white"/>
<path d="M11.4013 3.43553C11.9441 3.43553 12.3841 2.9955 12.3841 2.4527C12.3841 1.9099 11.9441 1.46988 11.4013 1.46988C10.8585 1.46988 10.4185 1.9099 10.4185 2.4527C10.4185 2.9955 10.8585 3.43553 11.4013 3.43553Z" fill="white"/>
<path d="M92.5509 18.8208H32.471C32.0327 18.8208 31.6124 18.9949 31.3024 19.3049C30.9925 19.6148 30.8184 20.0352 30.8184 20.4735C30.8184 20.9118 30.9925 21.3322 31.3024 21.6421C31.6124 21.9521 32.0327 22.1262 32.471 22.1262H92.5509C92.9892 22.1262 93.4096 21.9521 93.7195 21.6421C94.0294 21.3322 94.2036 20.9118 94.2036 20.4735C94.2036 20.0352 94.0294 19.6148 93.7195 19.3049C93.4096 18.9949 92.9892 18.8208 92.5509 18.8208V18.8208Z" fill="#E4E4E4"/>
<path d="M92.5509 31.5562H32.471C32.0327 31.5562 31.6124 31.7303 31.3024 32.0402C30.9925 32.3502 30.8184 32.7705 30.8184 33.2089C30.8184 33.6472 30.9925 34.0675 31.3024 34.3775C31.6124 34.6874 32.0327 34.8615 32.471 34.8615H92.5509C92.9889 34.861 93.4087 34.6867 93.7183 34.3768C94.0278 34.0669 94.2017 33.6469 94.2017 33.2089C94.2017 32.7709 94.0278 32.3508 93.7183 32.0409C93.4087 31.731 92.9889 31.5567 92.5509 31.5562Z" fill="#E4E4E4"/>
<path d="M92.5509 44.2915H32.471C32.0327 44.2915 31.6124 44.4657 31.3024 44.7756C30.9925 45.0855 30.8184 45.5059 30.8184 45.9442C30.8184 46.3825 30.9925 46.8029 31.3024 47.1129C31.6124 47.4228 32.0327 47.5969 32.471 47.5969H92.5509C92.9892 47.5969 93.4096 47.4228 93.7195 47.1129C94.0294 46.8029 94.2036 46.3825 94.2036 45.9442C94.2036 45.5059 94.0294 45.0855 93.7195 44.7756C93.4096 44.4657 92.9892 44.2915 92.5509 44.2915Z" fill="#E4E4E4"/>
<path d="M63.6776 22.2234H32.5287C32.0774 22.2299 31.6405 22.0652 31.3058 21.7624C30.9711 21.4597 30.7636 21.0413 30.7251 20.5917C30.7081 20.3523 30.7409 20.1119 30.8216 19.8858C30.9022 19.6597 31.0289 19.4528 31.1936 19.2782C31.3574 19.1036 31.5553 18.9642 31.775 18.8689C31.9947 18.7735 32.2316 18.724 32.4711 18.7236H60.275C61.1771 18.7246 62.042 19.0834 62.6798 19.7213C63.3177 20.3592 63.6766 21.2241 63.6776 22.1262V22.2234Z" fill="#006DBA"/>
<path d="M79.8155 34.9588H32.5287C32.0774 34.9653 31.6405 34.8006 31.3058 34.4978C30.9711 34.195 30.7636 33.7767 30.7251 33.3271C30.7081 33.0876 30.7409 32.8473 30.8216 32.6212C30.9022 32.3951 31.0289 32.1882 31.1936 32.0136C31.3574 31.8389 31.5553 31.6996 31.775 31.6043C31.9947 31.5089 32.2316 31.4594 32.4711 31.459H76.4129C77.315 31.46 78.1799 31.8188 78.8178 32.4567C79.4557 33.0946 79.8145 33.9595 79.8155 34.8616V34.9588Z" fill="#006DBA"/>
<path d="M73.2048 47.6941H32.5287C32.0774 47.7007 31.6405 47.5359 31.3058 47.2332C30.9711 46.9304 30.7636 46.5121 30.7251 46.0624C30.7081 45.823 30.7409 45.5827 30.8216 45.3566C30.9022 45.1305 31.0289 44.9236 31.1936 44.749C31.3574 44.5743 31.5553 44.435 31.775 44.3396C31.9947 44.2442 32.2316 44.1948 32.4711 44.1943H69.8022C70.7043 44.1954 71.5692 44.5542 72.2071 45.1921C72.845 45.8299 73.2038 46.6948 73.2048 47.5969V47.6941Z" fill="#006DBA"/>
<path d="M123.648 48.1916C123.78 48.4454 123.967 48.6671 124.195 48.8409C124.423 49.0147 124.686 49.1364 124.966 49.1975C125.246 49.2586 125.536 49.2576 125.815 49.1946C126.095 49.1315 126.357 49.0079 126.583 48.8326L132.416 52.638L132.398 49.019L126.862 45.9602C126.542 45.5991 126.101 45.3679 125.622 45.3103C125.143 45.2528 124.66 45.373 124.264 45.648C123.868 45.9231 123.586 46.3339 123.472 46.8027C123.359 47.2715 123.421 47.7657 123.648 48.1916L123.648 48.1916Z" fill="#FFB6B6"/>
<path d="M152.917 110.063H150.415L149.224 100.411L152.917 100.411L152.917 110.063Z" fill="#FFB6B6"/>
<path d="M153.555 112.488L145.487 112.488V112.386C145.487 111.553 145.818 110.754 146.407 110.165C146.996 109.576 147.794 109.246 148.627 109.246H148.628L153.556 109.246L153.555 112.488Z" fill="#212227"/>
<path d="M140.537 110.063H138.035L136.845 100.411L140.538 100.411L140.537 110.063Z" fill="#FFB6B6"/>
<path d="M141.175 112.488L133.107 112.488V112.386C133.107 111.553 133.438 110.754 134.027 110.165C134.616 109.576 135.415 109.246 136.247 109.246H136.248L141.176 109.246L141.175 112.488Z" fill="#212227"/>
<path d="M137.649 60.8105L135.156 85.6915L136.403 107.168H141.223L142.197 86.966L145.988 75.9193L148.195 92.9428V106.803L153.679 107.057L155.499 73.1202C155.499 73.1202 156.117 63.6281 154.883 62.465C153.65 61.302 137.649 60.8105 137.649 60.8105Z" fill="#212227"/>
<path d="M158.909 38.3594L153.869 36.4623L152.982 34.6639L146.647 34.7559L145.211 36.198L140.278 37.8141L137.141 61.846C137.141 61.846 146.797 68.7468 155.367 63.9789L158.909 38.3594Z" fill="#43464B"/>
<path d="M128.065 50.5144L136.357 55.3897L143.267 46.1472V40.3501C143.267 39.8142 143.109 39.2903 142.812 38.8446C142.537 38.4326 142.156 38.1034 141.709 37.8924C141.261 37.6813 140.764 37.5965 140.272 37.647C139.78 37.6975 139.311 37.8815 138.915 38.1791C138.52 38.4766 138.214 38.8765 138.029 39.3355L134.44 48.2513L129.351 46.7475L128.065 50.5144Z" fill="#43464B"/>
<path d="M152.161 63.5159C152.212 63.2339 152.324 62.9664 152.489 62.7322C152.654 62.498 152.868 62.3028 153.117 62.1604C153.365 62.018 153.642 61.9319 153.928 61.9081C154.213 61.8843 154.5 61.9233 154.769 62.0225L159.189 56.6406L160.259 60.0977L155.898 64.6785C155.702 65.1189 155.35 65.472 154.911 65.6708C154.471 65.8695 153.974 65.9002 153.513 65.7569C153.053 65.6136 152.661 65.3063 152.412 64.8933C152.162 64.4802 152.073 63.9902 152.162 63.5159L152.161 63.5159Z" fill="#FFB6B6"/>
<path d="M158.754 62.6685L155.961 59.8752L160.574 51.6101L153.884 44.1116L154.27 41.0864C154.359 40.3899 154.638 39.7314 155.076 39.1831V39.1831C155.458 38.7062 155.947 38.3276 156.505 38.0789C157.063 37.8302 157.672 37.7185 158.281 37.7534C158.891 37.7882 159.483 37.9685 160.008 38.2791C160.534 38.5898 160.978 39.0217 161.302 39.5389L166.533 51.1697L166.507 51.2084L158.754 62.6685Z" fill="#43464B"/>
<path d="M154.454 28.4203C154.26 29.831 153.515 31.1072 152.381 31.9685C151.247 32.8298 149.818 33.2058 148.407 33.0137C146.996 32.8217 145.719 32.0774 144.857 30.9445C143.995 29.8115 143.617 28.3824 143.808 26.9714L143.819 26.8952C144.041 25.5031 144.802 24.2544 145.937 23.4182C147.072 22.5821 148.49 22.2257 149.886 22.4258C151.281 22.6259 152.542 23.3665 153.396 24.4879C154.25 25.6093 154.63 27.0216 154.452 28.4201L154.454 28.4203Z" fill="#FFB6B6"/>
<path d="M153.087 31.1872C153.362 30.6268 153.646 30.0252 153.568 29.4054C153.491 28.7857 152.883 28.1933 152.286 28.3775C151.929 28.4876 151.66 28.84 151.286 28.858C150.773 28.8829 150.479 28.2954 150.319 27.807L149.668 25.8177C149.044 26.3047 148.319 26.6477 147.546 26.8223C146.773 26.9969 145.972 26.9988 145.198 26.8278C144.594 26.6897 143.984 26.4204 143.629 25.912C143.275 25.4036 143.277 24.6149 143.763 24.2304C144.001 24.0419 144.319 23.9703 144.546 23.7692C144.688 23.6444 144.785 23.4774 144.824 23.293C144.863 23.1086 144.842 22.9165 144.763 22.7451C144.685 22.5738 144.553 22.4323 144.388 22.3417C144.222 22.251 144.032 22.2159 143.846 22.2417L145.484 22.0369L144.996 21.154C145.181 21.2803 145.391 21.3664 145.612 21.4069C145.833 21.4474 146.06 21.4414 146.278 21.3892C146.719 21.3098 147.134 21.1283 147.565 21.0073C148.61 20.7404 149.714 20.8219 150.709 21.2396C151.703 21.6573 152.535 22.3882 153.076 23.3214C153.479 23.1868 153.914 23.1778 154.322 23.2957C154.73 23.4137 155.093 23.6529 155.363 23.9817C155.801 24.5384 155.921 25.2813 155.938 25.9898C155.969 27.3867 155.665 28.7709 155.049 30.0254C154.873 30.4239 154.619 30.7836 154.303 31.0837C154.144 31.2325 153.955 31.3447 153.748 31.4124C153.541 31.4801 153.321 31.5017 153.105 31.4757" fill="#212227"/>
<path d="M177.96 113H41.9876C41.9136 113.002 41.8412 112.979 41.7817 112.935C41.7221 112.891 41.6787 112.829 41.6583 112.757C41.6455 112.709 41.644 112.658 41.6539 112.609C41.6638 112.56 41.6849 112.514 41.7154 112.474C41.7459 112.435 41.7851 112.403 41.83 112.381C41.8749 112.358 41.9243 112.347 41.9744 112.347H177.933C178.011 112.344 178.088 112.368 178.15 112.414C178.213 112.461 178.258 112.527 178.279 112.602C178.289 112.65 178.289 112.7 178.278 112.747C178.267 112.795 178.245 112.839 178.215 112.878C178.184 112.916 178.145 112.947 178.101 112.968C178.057 112.989 178.009 113 177.96 113V113Z" fill="#CCCCCC"/>
</g>
<defs>
<clipPath id="clip0_569_116">
<rect width="178.286" height="113" fill="white"/>
</clipPath>
</defs>
</svg>
