<svg width="90" height="70" viewBox="0 0 90 70" fill="none" xmlns="http://www.w3.org/2000/svg">
  <g clip-path="url(#clip0_527_1263)">
    <path d="M52.2607 67.7097H31.3813L32.0891 58.6123H51.5529L52.2607 67.7097Z" fill="#B3B3B3" />
    <path d="M53.6759 66.6607H30.3193V68.7601H53.6759V66.6607Z" fill="#282A2F" />
    <path d="M81.81 0H2.00857C1.44543 0 0.90536 0.221202 0.50716 0.614945C0.108961 1.00869 -0.114746 1.54272 -0.114746 2.09955V50.2143H83.9333V2.09955C83.9333 1.54272 83.7096 1.00869 83.3114 0.614945C82.9132 0.221202 82.3732 0 81.81 0Z" fill="#282A2F" />
    <path d="M-0.114746 50.2143V58.0871C-0.114746 58.3628 -0.0598255 58.6358 0.0468814 58.8906C0.153588 59.1453 0.309992 59.3767 0.50716 59.5717C0.704329 59.7666 0.938402 59.9213 1.19602 60.0268C1.45363 60.1323 1.72974 60.1866 2.00857 60.1866H81.81C82.0888 60.1866 82.3649 60.1323 82.6226 60.0268C82.8802 59.9213 83.1142 59.7666 83.3114 59.5717C83.5086 59.3767 83.665 59.1453 83.7717 58.8906C83.8784 58.6358 83.9333 58.3628 83.9333 58.0871V50.2143H-0.114746Z" fill="#B3B3B3" />
    <path d="M79.864 4.37399H4.13232V46.365H79.864V4.37399Z" fill="#43464B" />
    <path d="M41.9983 57.2126C43.171 57.2126 44.1217 56.2726 44.1217 55.1132C44.1217 53.9537 43.171 53.0137 41.9983 53.0137C40.8256 53.0137 39.875 53.9537 39.875 55.1132C39.875 56.2726 40.8256 57.2126 41.9983 57.2126Z" fill="#212227" />
    <path d="M6.49328 6.14775C6.71583 6.14775 6.89623 5.96938 6.89623 5.74934C6.89623 5.5293 6.71583 5.35092 6.49328 5.35092C6.27074 5.35092 6.09033 5.5293 6.09033 5.74934C6.09033 5.96938 6.27074 6.14775 6.49328 6.14775Z" fill="white" />
    <path d="M8.02356 6.14775C8.2461 6.14775 8.42651 5.96938 8.42651 5.74934C8.42651 5.5293 8.2461 5.35092 8.02356 5.35092C7.80101 5.35092 7.62061 5.5293 7.62061 5.74934C7.62061 5.96938 7.80101 6.14775 8.02356 6.14775Z" fill="white" />
    <path d="M9.55236 6.14775C9.77491 6.14775 9.95532 5.96938 9.95532 5.74934C9.95532 5.5293 9.77491 5.35092 9.55236 5.35092C9.32982 5.35092 9.14941 5.5293 9.14941 5.74934C9.14941 5.96938 9.32982 6.14775 9.55236 6.14775Z" fill="white" />
    <path d="M86.827 28.3981C86.827 28.3981 87.476 36.7405 86.5674 36.9972C85.6588 37.2539 82.4136 39.179 77.2215 38.6656C77.2215 38.6656 72.1591 41.3609 72.9379 38.794C73.7167 36.2271 77.2215 36.8688 77.2215 36.8688C77.2215 36.8688 83.4521 35.5854 83.7117 34.687C83.9713 33.7886 82.9329 30.0666 83.3223 29.9382C83.7117 29.8099 86.827 28.3981 86.827 28.3981Z" fill="#F0D4D1" />
    <path opacity="0.2" d="M86.39 28.506C86.39 28.506 87.039 36.8484 86.1303 37.105C85.2217 37.3617 81.9766 39.2869 76.7844 38.7735C76.7844 38.7735 71.7221 41.4687 72.5009 38.9019C73.2797 36.335 76.7844 36.9767 76.7844 36.9767C76.7844 36.9767 83.015 35.6933 83.2746 34.7949C83.5343 33.8965 82.4958 30.1745 82.8852 30.0461C83.2746 29.9178 86.39 28.506 86.39 28.506Z" fill="#F0D4D1" />
    <path d="M79.1016 41.9267C79.1016 41.9267 79.5577 55.9682 80.3365 57.7651C80.9852 59.2618 81.3638 64.1427 81.4721 65.7314C81.4939 66.05 81.5047 66.2363 81.5047 66.2363C81.5047 66.2363 83.5816 66.2363 83.7114 65.7229C83.8412 65.2095 84.2306 59.562 83.7114 57.7651C83.1922 55.9682 84.4512 42.6824 84.4512 42.6824L79.1016 41.9267Z" fill="#33363B" />
    <path d="M82.0237 65.5945C82.0237 65.5945 80.7256 65.9796 80.466 66.4929C80.2064 67.0063 75.9229 67.9047 77.2209 68.5465C78.519 69.1882 82.4131 68.0331 82.4131 68.0331C82.4131 68.0331 84.49 67.9047 84.3601 67.1347C84.2303 66.3646 83.7576 65.4157 83.7576 65.4157L82.0237 65.5945Z" fill="#212227" />
    <path d="M85.6584 66.0048C85.6584 66.0048 84.3604 66.3899 84.1008 66.9032C83.8412 67.4166 79.5577 68.315 80.8557 68.9567C82.1537 69.5985 86.0478 68.4434 86.0478 68.4434C86.0478 68.4434 88.1247 68.315 87.9949 67.545C87.8651 66.7749 87.3924 65.826 87.3924 65.826L85.6584 66.0048Z" fill="#212227" />
    <path d="M80.2065 42.6449L82.0238 45.7253L85.0567 56.4354C85.0567 56.4354 84.7497 66.2615 85.1391 66.2615C85.5285 66.2615 87.6054 66.9033 87.7352 66.2615C87.8448 65.7194 89.2987 60.5265 88.574 57.07C88.1026 54.8855 87.7994 52.6688 87.667 50.4389L87.3458 44.4418C87.3458 44.4418 88.6438 42.1315 87.216 41.7464C85.7881 41.3614 80.2065 42.6449 80.2065 42.6449Z" fill="#33363B" />
    <path d="M81.8936 22.8784C83.6142 22.8784 85.0089 21.4993 85.0089 19.7982C85.0089 18.097 83.6142 16.7179 81.8936 16.7179C80.1731 16.7179 78.7783 18.097 78.7783 19.7982C78.7783 21.4993 80.1731 22.8784 81.8936 22.8784Z" fill="#F0D4D1" />
    <path d="M81.5044 21.8521C81.5044 21.8521 82.0236 25.9591 81.8938 26.2158C81.764 26.4725 85.0091 23.3922 85.0091 23.3922C85.0091 23.3922 83.8409 21.5954 84.1005 20.697L81.5044 21.8521Z" fill="#F0D4D1" />
    <path d="M88.7733 25.9594C88.7733 25.9594 85.1387 23.3924 85.0089 22.879L82.283 25.1893L81.8199 24.6441C81.8199 24.6441 79.687 26.7295 79.687 27.628C79.687 28.5264 79.5571 31.2218 79.9466 31.9919C80.336 32.762 78.7783 42.5167 78.7783 42.5167C78.7783 42.5167 80.0764 43.6719 80.2062 43.8002C80.336 43.9286 85.5282 43.0301 85.5282 43.0301C85.5282 43.0301 88.1242 42.7734 88.1242 42.3884C88.1242 42.0033 87.3454 36.2275 87.605 34.6873C87.8646 33.1471 88.7733 25.9594 88.7733 25.9594Z" fill="#212227" />
    <path d="M80.5639 18.2594C80.9898 18.1096 81.4596 18.0326 81.8938 18.1568C82.5083 18.3326 82.9339 18.8653 83.3929 19.3058C83.852 19.7464 84.4957 20.1367 85.1002 19.9296C85.0637 19.6705 85.1324 19.4077 85.2914 19.1987C85.3703 19.1207 85.4286 19.0248 85.4611 18.9193C85.487 18.7543 85.3467 18.612 85.3046 18.4503C85.2308 18.167 85.433 17.7792 85.1845 17.6204C85.1189 17.5785 85.0358 17.5689 84.9718 17.5247C84.7206 17.351 84.9996 16.9192 84.8334 16.6645C84.7837 16.5987 84.7191 16.5454 84.6447 16.5088C83.4402 15.8139 81.9672 15.812 80.5727 15.8295C80.3786 15.8319 80.1083 15.9273 80.1631 16.1114C79.8996 15.9244 79.5545 16.187 79.3421 16.4294L78.9073 16.9256C78.703 17.1414 78.5247 17.3799 78.376 17.6362C78.2432 17.8874 78.2138 18.2734 78.4781 18.3829C78.2816 18.3015 78.0432 19.4524 78.9492 19.2631C79.4755 19.153 79.9915 18.4609 80.5639 18.2594Z" fill="#AE8D8A" />
    <path d="M77.681 7.10326H6.09033V42.3688H77.681V7.10326Z" fill="#43464B" />
    <path d="M26.0602 12.2857H10.4131V25.7989H26.0602V12.2857Z" fill="#282A2F" />
    <path d="M49.7338 12.3263H34.1338V25.7989H49.7338V12.3263Z" fill="#282A2F" />
    <path d="M73.359 12.1942H57.606V25.7989H73.359V12.1942Z" fill="#282A2F" />
    <path d="M25.7169 31.6973H10.4131V33.0951H25.7169V31.6973Z" fill="#E6E6E6" />
    <path d="M18.0807 34.1583H10.4131V35.5561H18.0807V34.1583Z" fill="#006DBA" />
    <path d="M49.692 31.6973H34.3882V33.0951H49.692V31.6973Z" fill="#E6E6E6" />
    <path d="M42.0558 34.1583H34.3882V35.5561H42.0558V34.1583Z" fill="#006DBA" />
    <path d="M73.0689 31.6973H57.7651V33.0951H73.0689V31.6973Z" fill="#E6E6E6" />
    <path d="M65.4328 34.1583H57.7651V35.5561H65.4328V34.1583Z" fill="#006DBA" />
    <path d="M39.1434 29.4576C39.5424 29.4576 39.8658 29.1378 39.8658 28.7433C39.8658 28.3488 39.5424 28.0289 39.1434 28.0289C38.7444 28.0289 38.4209 28.3488 38.4209 28.7433C38.4209 29.1378 38.7444 29.4576 39.1434 29.4576Z" fill="#006DBA" />
    <path d="M41.8856 29.4576C42.2846 29.4576 42.608 29.1378 42.608 28.7433C42.608 28.3488 42.2846 28.0289 41.8856 28.0289C41.4865 28.0289 41.1631 28.3488 41.1631 28.7433C41.1631 29.1378 41.4865 29.4576 41.8856 29.4576Z" fill="white" />
    <path d="M44.6277 29.4576C45.0268 29.4576 45.3502 29.1378 45.3502 28.7433C45.3502 28.3488 45.0268 28.0289 44.6277 28.0289C44.2287 28.0289 43.9053 28.3488 43.9053 28.7433C43.9053 29.1378 44.2287 29.4576 44.6277 29.4576Z" fill="white" />
    <path d="M15.4939 29.4576C15.893 29.4576 16.2164 29.1378 16.2164 28.7433C16.2164 28.3488 15.893 28.0289 15.4939 28.0289C15.0949 28.0289 14.7715 28.3488 14.7715 28.7433C14.7715 29.1378 15.0949 29.4576 15.4939 29.4576Z" fill="#006DBA" />
    <path d="M18.2361 29.4576C18.6351 29.4576 18.9586 29.1378 18.9586 28.7433C18.9586 28.3488 18.6351 28.0289 18.2361 28.0289C17.8371 28.0289 17.5137 28.3488 17.5137 28.7433C17.5137 29.1378 17.8371 29.4576 18.2361 29.4576Z" fill="#006DBA" />
    <path d="M20.9783 29.4576C21.3773 29.4576 21.7008 29.1378 21.7008 28.7433C21.7008 28.3488 21.3773 28.0289 20.9783 28.0289C20.5793 28.0289 20.2559 28.3488 20.2559 28.7433C20.2559 29.1378 20.5793 29.4576 20.9783 29.4576Z" fill="white" />
    <path d="M63.3763 29.4576C63.7753 29.4576 64.0988 29.1378 64.0988 28.7433C64.0988 28.3488 63.7753 28.0289 63.3763 28.0289C62.9773 28.0289 62.6538 28.3488 62.6538 28.7433C62.6538 29.1378 62.9773 29.4576 63.3763 29.4576Z" fill="#006DBA" />
    <path d="M66.1185 29.4576C66.5175 29.4576 66.8409 29.1378 66.8409 28.7433C66.8409 28.3488 66.5175 28.0289 66.1185 28.0289C65.7195 28.0289 65.396 28.3488 65.396 28.7433C65.396 29.1378 65.7195 29.4576 66.1185 29.4576Z" fill="#006DBA" />
    <path d="M68.8612 29.4576C69.2602 29.4576 69.5836 29.1378 69.5836 28.7433C69.5836 28.3488 69.2602 28.0289 68.8612 28.0289C68.4621 28.0289 68.1387 28.3488 68.1387 28.7433C68.1387 29.1378 68.4621 29.4576 68.8612 29.4576Z" fill="#006DBA" />
    <path d="M65.4828 15.0361C64.6906 15.0361 63.9162 15.2684 63.2576 15.7035C62.5989 16.1387 62.0856 16.7572 61.7824 17.4808C61.4793 18.2044 61.4 19.0007 61.5545 19.7689C61.709 20.5371 62.0905 21.2427 62.6506 21.7965C63.2108 22.3504 63.9245 22.7275 64.7014 22.8804C65.4783 23.0332 66.2837 22.9547 67.0155 22.655C67.7474 22.3553 68.3729 21.8477 68.813 21.1964C69.2531 20.5452 69.488 19.7795 69.488 18.9963C69.4849 17.9469 69.0619 16.9414 68.3115 16.1994C67.561 15.4574 66.5441 15.0392 65.4828 15.0361ZM65.4828 16.2242C65.7204 16.2242 65.9527 16.2938 66.1503 16.4244C66.3479 16.5549 66.5019 16.7405 66.5929 16.9576C66.6838 17.1747 66.7076 17.4135 66.6613 17.644C66.6149 17.8745 66.5005 18.0861 66.3324 18.2523C66.1644 18.4184 65.9503 18.5316 65.7172 18.5774C65.4841 18.6233 65.2425 18.5997 65.023 18.5098C64.8034 18.4199 64.6157 18.2676 64.4837 18.0723C64.3517 17.8769 64.2812 17.6472 64.2812 17.4122C64.2823 17.0974 64.4092 16.7959 64.6343 16.5733C64.8594 16.3507 65.1644 16.2252 65.4828 16.2242ZM65.4828 21.9436C65.0081 21.9414 64.5411 21.8248 64.1224 21.6038C63.7036 21.3829 63.3457 21.0642 63.0796 20.6755C63.0989 19.8835 64.6817 19.4475 65.4828 19.4475C66.2838 19.4475 67.8667 19.8835 67.8859 20.6755C67.6196 21.0639 67.2616 21.3824 66.8429 21.6033C66.4242 21.8242 65.9574 21.941 65.4828 21.9436Z" fill="white" />
    <path d="M41.9335 15.1023C41.1413 15.1023 40.3669 15.3346 39.7083 15.7697C39.0496 16.2049 38.5363 16.8234 38.2331 17.547C37.93 18.2706 37.8506 19.0669 38.0052 19.8351C38.1597 20.6033 38.5412 21.3089 39.1013 21.8628C39.6615 22.4166 40.3751 22.7938 41.1521 22.9466C41.929 23.0994 42.7343 23.021 43.4662 22.7212C44.198 22.4215 44.8236 21.9139 45.2637 21.2627C45.7038 20.6114 45.9387 19.8457 45.9387 19.0625C45.9356 18.0131 45.5126 17.0077 44.7621 16.2656C44.0117 15.5236 42.9948 15.1054 41.9335 15.1023V15.1023ZM41.9335 16.2904C42.1711 16.2904 42.4034 16.3601 42.601 16.4906C42.7986 16.6212 42.9526 16.8067 43.0436 17.0238C43.1345 17.2409 43.1583 17.4798 43.1119 17.7102C43.0656 17.9407 42.9511 18.1524 42.7831 18.3185C42.6151 18.4847 42.401 18.5978 42.1679 18.6437C41.9348 18.6895 41.6932 18.666 41.4736 18.5761C41.2541 18.4861 41.0664 18.3339 40.9344 18.1385C40.8024 17.9431 40.7319 17.7134 40.7319 17.4784C40.733 17.1637 40.8599 16.8621 41.085 16.6395C41.3101 16.4169 41.6151 16.2914 41.9335 16.2904V16.2904ZM41.9335 22.0098C41.4588 22.0076 40.9918 21.891 40.5731 21.6701C40.1543 21.4491 39.7964 21.1305 39.5303 20.7418C39.5496 19.9497 41.1324 19.5137 41.9335 19.5137C42.7345 19.5137 44.3173 19.9497 44.3366 20.7418C44.0703 21.1302 43.7123 21.4486 43.2936 21.6695C42.8749 21.8904 42.408 22.0072 41.9335 22.0098V22.0098Z" fill="white" />
    <path d="M18.2362 15.0819C17.444 15.0819 16.6697 15.3142 16.011 15.7493C15.3523 16.1845 14.839 16.803 14.5358 17.5266C14.2327 18.2502 14.1534 19.0465 14.3079 19.8147C14.4625 20.5829 14.8439 21.2885 15.4041 21.8423C15.9642 22.3962 16.6779 22.7733 17.4548 22.9261C18.2317 23.0789 19.0371 23.0005 19.7689 22.7008C20.5008 22.401 21.1263 21.8935 21.5664 21.2422C22.0065 20.591 22.2414 19.8253 22.2414 19.0421C22.2383 17.9927 21.8153 16.9872 21.0649 16.2452C20.3144 15.5032 19.2975 15.085 18.2362 15.0819ZM18.2362 16.27C18.4738 16.27 18.7061 16.3396 18.9037 16.4702C19.1013 16.6007 19.2553 16.7863 19.3463 17.0034C19.4372 17.2204 19.461 17.4593 19.4147 17.6898C19.3683 17.9202 19.2539 18.1319 19.0858 18.2981C18.9178 18.4642 18.7037 18.5774 18.4706 18.6232C18.2375 18.6691 17.9959 18.6455 17.7764 18.5556C17.5568 18.4657 17.3691 18.3134 17.2371 18.118C17.1051 17.9227 17.0346 17.693 17.0346 17.458C17.0357 17.1432 17.1626 16.8417 17.3877 16.6191C17.6128 16.3965 17.9178 16.271 18.2362 16.27V16.27ZM18.2362 21.9893C17.7615 21.9872 17.2946 21.8706 16.8758 21.6496C16.457 21.4287 16.0991 21.11 15.833 20.7213C15.8523 19.9293 17.4351 19.4933 18.2362 19.4933C19.0372 19.4933 20.6201 19.9293 20.6393 20.7213C20.373 21.1097 20.015 21.4281 19.5963 21.6491C19.1776 21.87 18.7108 21.9868 18.2362 21.9893V21.9893Z" fill="white" />
    <path d="M89.5521 29.5531C89.5521 29.5531 90.2011 37.8954 89.2925 38.1521C88.3839 38.4088 85.1387 40.334 79.9466 39.8206C79.9466 39.8206 74.8842 42.5158 75.663 39.9489C76.4418 37.3821 79.9466 38.0238 79.9466 38.0238C79.9466 38.0238 86.1772 36.7403 86.4368 35.8419C86.6964 34.9435 85.658 31.2216 86.0474 31.0932C86.4368 30.9649 89.5521 29.5531 89.5521 29.5531Z" fill="#F0D4D1" />
    <path d="M86.6966 26.2158L88.7734 25.9591C88.7734 25.9591 90.8503 29.9378 89.682 30.5795C88.5138 31.2212 85.5283 31.7346 85.5283 31.4779C85.5283 31.2212 86.6966 26.2158 86.6966 26.2158Z" fill="#282A2F" />
  </g>
  <defs>
    <clipPath id="clip0_527_1263">
      <rect width="90" height="69.1463" fill="white" />
    </clipPath>
  </defs>
</svg>