<svg width="200" height="112" viewBox="0 0 200 112" fill="none" xmlns="http://www.w3.org/2000/svg">
<g clip-path="url(#clip0_527_1310)">
<path d="M42.278 99.4175C48.0652 99.4175 52.7566 94.8789 52.7566 89.2802C52.7566 83.6816 48.0652 79.143 42.278 79.143C36.4908 79.143 31.7993 83.6816 31.7993 89.2802C31.7993 94.8789 36.4908 99.4175 42.278 99.4175Z" fill="white"/>
<path d="M43.9816 97.9339C49.7688 97.9339 54.4603 93.3953 54.4603 87.7966C54.4603 82.198 49.7688 77.6594 43.9816 77.6594C38.1944 77.6594 33.5029 82.198 33.5029 87.7966C33.5029 93.3953 38.1944 97.9339 43.9816 97.9339Z" fill="#006DBA"/>
<path d="M182.07 76.58H52.4209V76.9225H182.07V76.58Z" fill="#212227"/>
<path d="M119.567 3.19166H73.5493V2.27411H52.6832V3.19166H6.47602C6.06725 3.19166 5.66248 3.26955 5.28482 3.42089C4.90717 3.57222 4.56402 3.79403 4.27498 4.07366C3.98594 4.35328 3.75665 4.68525 3.60022 5.0506C3.44379 5.41595 3.36328 5.80752 3.36328 6.20298V67.1619C3.36328 67.9605 3.69123 68.7265 4.27498 69.2912C4.85873 69.8559 5.65047 70.1732 6.47602 70.1732H119.567C120.392 70.1732 121.184 69.8559 121.768 69.2912C122.352 68.7265 122.68 67.9605 122.68 67.1619V6.20298C122.68 5.80752 122.599 5.41595 122.443 5.0506C122.286 4.68525 122.057 4.35328 121.768 4.07366C121.479 3.79403 121.136 3.57222 120.758 3.42089C120.38 3.26955 119.976 3.19166 119.567 3.19166Z" fill="#212227"/>
<path d="M118.506 8.51355H7.53613V69.0722H118.506V8.51355Z" fill="#43464B"/>
<path d="M62.9267 6.86192C63.5553 6.86192 64.0649 6.36896 64.0649 5.76086C64.0649 5.15275 63.5553 4.65979 62.9267 4.65979C62.2981 4.65979 61.7886 5.15275 61.7886 5.76086C61.7886 6.36896 62.2981 6.86192 62.9267 6.86192Z" fill="white"/>
<path opacity="0.1" d="M86.7704 69.0722H7.53613V8.51355L86.7704 69.0722Z" fill="white"/>
<path d="M34.406 54.2213C34.406 59.2433 30.1866 63.3796 24.9002 63.3796C19.6137 63.3796 15.3943 59.2433 15.3943 54.2213C15.3943 49.1993 19.6137 45.063 24.9002 45.063C30.1866 45.063 34.406 49.1993 34.406 54.2213Z" fill="#212227" stroke="white" stroke-width="2.32182"/>
<path d="M99.1846 41.1733H88.8188V43.2688H99.1846V41.1733Z" fill="white"/>
<path d="M111.715 24.8589H76.2861V25.7576H111.715V24.8589Z" fill="white"/>
<path d="M111.715 27.7026H76.2861V28.6013H111.715V27.7026Z" fill="white"/>
<path d="M111.715 30.5466H76.2861V31.4453H111.715V30.5466Z" fill="white"/>
<path d="M111.715 33.3903H76.2861V34.2889H111.715V33.3903Z" fill="white"/>
<path d="M111.715 36.2341H76.2861V37.1328H111.715V36.2341Z" fill="white"/>
<path d="M111.716 9.74219H107.384V13.933H111.716V9.74219Z" fill="#F2F2F2"/>
<path d="M113.727 15.8788H108.467V10.7899H113.727V15.8788ZM108.696 15.6575H113.498V11.0112H108.696V15.6575Z" fill="#CAABA8"/>
<path d="M125.795 67.9711H114.965V67.2163C114.965 67.1966 114.961 67.1771 114.953 67.159C114.945 67.1408 114.934 67.1243 114.92 67.1104C114.905 67.0965 114.888 67.0855 114.869 67.078C114.851 67.0705 114.831 67.0666 114.81 67.0666H111.097C111.077 67.0666 111.057 67.0705 111.038 67.078C111.019 67.0855 111.002 67.0965 110.988 67.1104C110.973 67.1243 110.962 67.1408 110.954 67.159C110.946 67.1771 110.942 67.1966 110.942 67.2163V67.9711H108.622V67.2163C108.622 67.1966 108.618 67.1771 108.61 67.159C108.602 67.1408 108.591 67.1243 108.576 67.1104C108.562 67.0965 108.545 67.0855 108.526 67.078C108.507 67.0705 108.487 67.0666 108.467 67.0666H104.754C104.734 67.0666 104.713 67.0705 104.695 67.078C104.676 67.0855 104.659 67.0965 104.644 67.1104C104.63 67.1243 104.619 67.1408 104.611 67.159C104.603 67.1771 104.599 67.1966 104.599 67.2163V67.9711H102.278V67.2163C102.278 67.1966 102.274 67.1771 102.267 67.159C102.259 67.1408 102.248 67.1243 102.233 67.1104C102.219 67.0965 102.202 67.0855 102.183 67.078C102.164 67.0705 102.144 67.0666 102.124 67.0666H98.4107C98.3903 67.0666 98.3702 67.0705 98.3515 67.078C98.3327 67.0855 98.3156 67.0965 98.3013 67.1104C98.2869 67.1243 98.2755 67.1408 98.2677 67.159C98.2599 67.1771 98.256 67.1966 98.256 67.2163V67.9711H95.9352V67.2163C95.9352 67.1966 95.9312 67.1771 95.9235 67.159C95.9157 67.1408 95.9043 67.1243 95.8899 67.1104C95.8756 67.0965 95.8585 67.0855 95.8397 67.078C95.821 67.0705 95.8008 67.0666 95.7805 67.0666H92.0674C92.0471 67.0666 92.027 67.0705 92.0082 67.078C91.9894 67.0855 91.9724 67.0965 91.958 67.1104C91.9436 67.1243 91.9322 67.1408 91.9245 67.159C91.9167 67.1771 91.9127 67.1966 91.9127 67.2163V67.9711H89.592V67.2163C89.592 67.1966 89.588 67.1771 89.5802 67.159C89.5724 67.1408 89.5611 67.1243 89.5467 67.1104C89.5323 67.0965 89.5153 67.0855 89.4965 67.078C89.4777 67.0705 89.4576 67.0666 89.4373 67.0666H85.7242C85.7038 67.0666 85.6837 67.0705 85.665 67.078C85.6462 67.0855 85.6291 67.0965 85.6148 67.1104C85.6004 67.1243 85.589 67.1408 85.5812 67.159C85.5735 67.1771 85.5695 67.1966 85.5695 67.2163V67.9711H83.2488V67.2163C83.2488 67.1966 83.2448 67.1771 83.237 67.159C83.2292 67.1408 83.2178 67.1243 83.2034 67.1104C83.1891 67.0965 83.172 67.0855 83.1532 67.078C83.1345 67.0705 83.1144 67.0666 83.094 67.0666H79.3809C79.3606 67.0666 79.3405 67.0705 79.3217 67.078C79.3029 67.0855 79.2859 67.0965 79.2715 67.1104C79.2572 67.1243 79.2458 67.1408 79.238 67.159C79.2302 67.1771 79.2262 67.1966 79.2262 67.2163V67.9711H76.9055V67.2163C76.9055 67.1966 76.9015 67.1771 76.8937 67.159C76.886 67.1408 76.8746 67.1243 76.8602 67.1104C76.8458 67.0965 76.8288 67.0855 76.81 67.078C76.7912 67.0705 76.7711 67.0666 76.7508 67.0666H47.6647C47.6444 67.0666 47.6243 67.0705 47.6055 67.078C47.5867 67.0855 47.5697 67.0965 47.5553 67.1104C47.5409 67.1243 47.5295 67.1408 47.5218 67.159C47.514 67.1771 47.51 67.1966 47.51 67.2163V67.9711H45.1893V67.2163C45.1893 67.1966 45.1853 67.1771 45.1775 67.159C45.1697 67.1408 45.1583 67.1243 45.144 67.1104C45.1296 67.0965 45.1126 67.0855 45.0938 67.078C45.075 67.0705 45.0549 67.0666 45.0346 67.0666H41.3215C41.3011 67.0666 41.281 67.0705 41.2623 67.078C41.2435 67.0855 41.2264 67.0965 41.2121 67.1104C41.1977 67.1243 41.1863 67.1408 41.1785 67.159C41.1707 67.1771 41.1668 67.1966 41.1668 67.2163V67.9711H38.8461V67.2163C38.8461 67.1966 38.842 67.1771 38.8343 67.159C38.8265 67.1408 38.8151 67.1243 38.8007 67.1104C38.7864 67.0965 38.7693 67.0855 38.7505 67.078C38.7318 67.0705 38.7117 67.0666 38.6913 67.0666H34.9782C34.9579 67.0666 34.9378 67.0705 34.919 67.078C34.9002 67.0855 34.8832 67.0965 34.8688 67.1104C34.8545 67.1243 34.8431 67.1408 34.8353 67.159C34.8275 67.1771 34.8235 67.1966 34.8235 67.2163V67.9711H32.5028V67.2163C32.5028 67.1966 32.4988 67.1771 32.491 67.159C32.4833 67.1408 32.4719 67.1243 32.4575 67.1104C32.4431 67.0965 32.4261 67.0855 32.4073 67.078C32.3885 67.0705 32.3684 67.0666 32.3481 67.0666H28.635C28.6147 67.0666 28.5945 67.0705 28.5758 67.078C28.557 67.0855 28.5399 67.0965 28.5256 67.1104C28.5112 67.1243 28.4998 67.1408 28.492 67.159C28.4843 67.1771 28.4803 67.1966 28.4803 67.2163V67.9711H26.1596V67.2163C26.1596 67.1966 26.1556 67.1771 26.1478 67.159C26.14 67.1408 26.1286 67.1243 26.1143 67.1104C26.0999 67.0965 26.0828 67.0855 26.0641 67.078C26.0453 67.0705 26.0252 67.0666 26.0049 67.0666H22.2917C22.2714 67.0666 22.2513 67.0705 22.2325 67.078C22.2138 67.0855 22.1967 67.0965 22.1823 67.1104C22.168 67.1243 22.1566 67.1408 22.1488 67.159C22.141 67.1771 22.137 67.1966 22.137 67.2163V67.9711H19.8163V67.2163C19.8163 67.1966 19.8123 67.1771 19.8045 67.159C19.7968 67.1408 19.7854 67.1243 19.771 67.1104C19.7566 67.0965 19.7396 67.0855 19.7208 67.078C19.702 67.0705 19.6819 67.0666 19.6616 67.0666H15.9485C15.9282 67.0666 15.9081 67.0705 15.8893 67.078C15.8705 67.0855 15.8535 67.0965 15.8391 67.1104C15.8247 67.1243 15.8133 67.1408 15.8056 67.159C15.7978 67.1771 15.7938 67.1966 15.7938 67.2163V67.9711H13.4731V67.2163C13.4731 67.1966 13.4691 67.1771 13.4613 67.159C13.4535 67.1408 13.4421 67.1243 13.4278 67.1104C13.4134 67.0965 13.3963 67.0855 13.3776 67.078C13.3588 67.0705 13.3387 67.0666 13.3184 67.0666H9.60525C9.58493 67.0666 9.56481 67.0705 9.54604 67.078C9.52727 67.0855 9.51021 67.0965 9.49585 67.1104C9.48148 67.1243 9.47008 67.1408 9.46231 67.159C9.45453 67.1771 9.45053 67.1966 9.45053 67.2163V67.9711H2.33372C1.34894 67.9711 0.404498 68.3496 -0.291846 69.0232C-0.988191 69.6969 -1.37939 70.6106 -1.37939 71.5633V73.1875C-1.37939 74.1402 -0.988188 75.0539 -0.291844 75.7276C0.404501 76.4012 1.34895 76.7797 2.33372 76.7797H125.795C126.78 76.7797 127.724 76.4012 128.42 75.7276C129.117 75.0539 129.508 74.1402 129.508 73.1875V71.5633C129.508 70.6106 129.117 69.6969 128.42 69.0232C127.724 68.3496 126.78 67.9711 125.795 67.9711Z" fill="#212227"/>
<path d="M27.4821 60.6666C24.8234 60.6666 22.2244 59.9039 20.0138 58.4749C17.8032 57.046 16.0802 55.0149 15.0628 52.6387C14.0454 50.2624 13.7792 47.6477 14.2979 45.125C14.8165 42.6024 16.0968 40.2852 17.9768 38.4665C19.8567 36.6478 22.252 35.4093 24.8596 34.9075C27.4671 34.4057 30.17 34.6632 32.6263 35.6475C35.0826 36.6318 37.182 38.2986 38.6591 40.4372C40.1362 42.5758 40.9246 45.09 40.9246 47.6621C40.9205 51.1099 39.503 54.4154 36.9829 56.8533C34.4628 59.2913 31.046 60.6627 27.4821 60.6666ZM27.4821 34.9998C24.8933 34.9998 22.3628 35.7425 20.2103 37.1338C18.0579 38.5251 16.3803 40.5027 15.3896 42.8164C14.399 45.1302 14.1398 47.6761 14.6448 50.1324C15.1498 52.5886 16.3964 54.8448 18.2269 56.6157C20.0574 58.3865 22.3896 59.5925 24.9286 60.0811C27.4675 60.5696 30.0992 60.3189 32.4909 59.3605C34.8826 58.4021 36.9267 56.7792 38.3649 54.6969C39.8032 52.6146 40.5708 50.1664 40.5708 47.6621C40.5669 44.305 39.1866 41.0865 36.7329 38.7127C34.2791 36.3389 30.9522 35.0036 27.4821 34.9998Z" fill="white"/>
<path d="M147.402 5.56866H102.299V5.91114H147.402V5.56866Z" fill="#212227"/>
<path d="M200.111 95.9157H70.4619V96.2582H200.111V95.9157Z" fill="#212227"/>
<path d="M77.8027 111.658H32.6997V112H77.8027V111.658Z" fill="#212227"/>
<path d="M86.8812 94.1115H81.9287V98.9027H86.8812V94.1115Z" fill="#006DBA"/>
<path d="M89.8882 96.1649H83.8745V90.3471H89.8882V96.1649ZM84.136 95.912H89.6268V90.6001H84.136V95.912Z" fill="#212227"/>
<path d="M144.366 3.76471H139.414V8.55584H144.366V3.76471Z" fill="#006DBA"/>
<path d="M147.372 5.8178H141.358V0H147.372V5.8178ZM141.619 5.56485H147.11V0.252948H141.619V5.56485Z" fill="#212227"/>
<path d="M194.244 94.1115H189.292V98.9027H194.244V94.1115Z" fill="#006DBA"/>
<path d="M197.252 96.165H191.238V90.3472H197.252V96.165ZM191.499 95.912H196.99V90.6001H191.499V95.912Z" fill="#212227"/>
<path d="M185.608 39.6909H185.187V28.541C185.187 27.6935 185.015 26.8544 184.679 26.0714C184.344 25.2885 183.853 24.5771 183.233 23.9778C182.614 23.3786 181.879 22.9032 181.069 22.5789C180.26 22.2546 179.393 22.0877 178.517 22.0877H154.098C153.222 22.0877 152.355 22.2546 151.546 22.5789C150.736 22.9032 150.001 23.3786 149.382 23.9778C148.762 24.5771 148.271 25.2885 147.936 26.0714C147.6 26.8544 147.428 27.6935 147.428 28.541V89.7102C147.428 90.5577 147.6 91.3968 147.936 92.1798C148.271 92.9627 148.762 93.6741 149.382 94.2734C150.001 94.8726 150.736 95.348 151.546 95.6723C152.355 95.9966 153.222 96.1635 154.098 96.1635H178.517C179.393 96.1635 180.26 95.9966 181.069 95.6723C181.879 95.348 182.614 94.8726 183.233 94.2734C183.853 93.6741 184.344 92.9627 184.679 92.1798C185.015 91.3968 185.187 90.5577 185.187 89.7102V47.6276H185.608V39.6909Z" fill="#212227"/>
<path d="M183.767 28.9202V90.0003C183.767 91.2785 183.242 92.5044 182.308 93.4083C181.374 94.3123 180.107 94.8203 178.786 94.8205H154.25C152.929 94.8203 151.662 94.3123 150.728 93.4083C149.793 92.5044 149.269 91.2785 149.269 90.0003V28.9202C149.269 27.6423 149.794 26.4168 150.728 25.5132C151.662 24.6096 152.929 24.1019 154.25 24.1017H157.227C157.08 24.4494 157.024 24.8265 157.064 25.2C157.104 25.5734 157.238 25.9317 157.454 26.2433C157.671 26.5548 157.963 26.8101 158.305 26.9866C158.648 27.1631 159.03 27.2554 159.418 27.2553H173.407C173.795 27.2554 174.177 27.1631 174.52 26.9866C174.862 26.8101 175.155 26.5548 175.371 26.2433C175.588 25.9317 175.722 25.5734 175.761 25.2C175.801 24.8265 175.745 24.4494 175.599 24.1017H178.786C180.107 24.1019 181.374 24.6096 182.308 25.5132C183.242 26.4168 183.767 27.6423 183.767 28.9202Z" fill="#43464B"/>
<path d="M170.172 64.3753H162.863V66.4707H170.172V64.3753Z" fill="white"/>
<path d="M179.009 48.061H154.027V48.9597H179.009V48.061Z" fill="white"/>
<path d="M179.009 50.9049H154.027V51.8036H179.009V50.9049Z" fill="white"/>
<path d="M179.009 53.7485H154.027V54.6472H179.009V53.7485Z" fill="white"/>
<path d="M179.009 56.5924H154.027V57.4911H179.009V56.5924Z" fill="white"/>
<path d="M179.009 59.4362H154.027V60.3349H179.009V59.4362Z" fill="white"/>
<path d="M167.391 36.1353H163.059V40.3261H167.391V36.1353Z" fill="white"/>
<path d="M164.717 37.1832V42.272H169.978V37.1832H164.717ZM169.749 42.0513H164.945V37.4039H169.749V42.0513Z" fill="#CAABA8"/>
<path opacity="0.1" d="M183.767 83.4774V90.0001C183.767 91.2783 183.242 92.5042 182.308 93.4082C181.374 94.3121 180.107 94.8201 178.786 94.8203H154.25C152.929 94.8201 151.662 94.3121 150.728 93.4082C149.793 92.5042 149.269 91.2783 149.269 90.0001V57.1108L169.94 72.9095L170.294 73.1799L174.139 76.1178L174.498 76.3933L183.767 83.4774Z" fill="white"/>
<path d="M170.993 85.3346C170.993 88.8031 168.075 91.68 164.395 91.68C160.714 91.68 157.797 88.8031 157.797 85.3346C157.797 81.8661 160.714 78.9892 164.395 78.9892C168.075 78.9892 170.993 81.8661 170.993 85.3346Z" fill="#212227" stroke="white" stroke-width="2.32182"/>
<path d="M55.2509 112C52.2074 112 49.2323 111.127 46.7017 109.491C44.1712 107.855 42.1988 105.53 41.0342 102.81C39.8695 100.09 39.5647 97.0968 40.1585 94.2091C40.7522 91.3213 42.2178 88.6688 44.3699 86.5868C46.5219 84.5049 49.2638 83.0871 52.2488 82.5126C55.2339 81.9382 58.3279 82.233 61.1397 83.3598C63.9515 84.4865 66.3548 86.3946 68.0457 88.8427C69.7366 91.2908 70.639 94.169 70.639 97.1133C70.6344 101.06 69.0117 104.844 66.1269 107.635C63.242 110.426 59.3307 111.996 55.2509 112ZM55.2509 82.5688C52.2774 82.5688 49.3707 83.4218 46.8983 85.02C44.4259 86.6182 42.4989 88.8897 41.361 91.5474C40.2231 94.205 39.9253 97.1295 40.5054 99.9508C41.0855 102.772 42.5174 105.364 44.62 107.398C46.7226 109.432 49.4015 110.817 52.3179 111.378C55.2342 111.94 58.2572 111.652 61.0043 110.551C63.7515 109.45 66.0996 107.586 67.7515 105.194C69.4035 102.802 70.2853 99.9899 70.2853 97.1133C70.2808 93.2572 68.6954 89.5603 65.8769 86.8336C63.0583 84.1069 59.2369 82.5732 55.2509 82.5688Z" fill="#212227"/>
<path d="M166.683 91.1245C164.759 91.1245 162.878 90.5726 161.278 89.5385C159.678 88.5044 158.431 87.0345 157.695 85.3149C156.959 83.5952 156.766 81.7029 157.142 79.8774C157.517 78.0518 158.443 76.3749 159.804 75.0587C161.164 73.7425 162.898 72.8462 164.785 72.4831C166.672 72.12 168.628 72.3063 170.405 73.0186C172.183 73.7309 173.702 74.9372 174.771 76.4848C175.84 78.0325 176.411 79.852 176.411 81.7134C176.408 84.2085 175.382 86.6006 173.558 88.365C171.735 90.1293 169.262 91.1217 166.683 91.1245ZM166.683 72.6445C164.829 72.6445 163.016 73.1764 161.475 74.1729C159.933 75.1694 158.731 76.5857 158.022 78.2429C157.312 79.9 157.127 81.7234 157.488 83.4826C157.85 85.2418 158.743 86.8578 160.054 88.1261C161.365 89.3944 163.035 90.2581 164.854 90.608C166.672 90.958 168.557 90.7784 170.27 90.092C171.983 89.4056 173.447 88.2432 174.477 86.7518C175.507 85.2604 176.057 83.507 176.057 81.7134C176.054 79.309 175.066 77.0038 173.308 75.3037C171.551 73.6035 169.168 72.6472 166.683 72.6445Z" fill="white"/>
</g>
<defs>
<clipPath id="clip0_527_1310">
<rect width="200" height="112" fill="white"/>
</clipPath>
</defs>
</svg>
