<svg width="489" height="494" viewBox="0 0 489 494" fill="none" xmlns="http://www.w3.org/2000/svg">
<g clip-path="url(#clip0_625_135)">
<g filter="url(#filter0_d_625_135)">
<path d="M345.292 488.845C337.442 481.017 332.674 468.651 333.925 456.613C335.175 444.575 342.92 433.508 352.966 430.951C363.013 428.395 374.465 435.472 377.516 447.053C379.195 424.724 381.131 401.46 391.19 382.445C400.298 365.228 416.074 352.908 433.172 350.704C450.27 348.5 468.271 356.824 478.935 372.75C489.598 388.676 492.209 411.829 484.74 430.113C479.239 443.582 469.103 453.606 458.483 461.761C424.167 487.891 383.008 498.517 342.581 491.684" fill="#006DBA"/>
</g>
<path d="M462.027 357.286C447.919 370.847 434.977 386.013 423.387 402.567C405.249 428.384 390.572 457.329 379.866 488.395C379.083 490.661 382.201 491.648 382.976 489.407C389.784 469.765 398.207 450.959 408.123 433.256C423.587 405.603 442.533 380.892 464.307 359.977C465.917 358.43 463.624 355.752 462.027 357.286V357.286Z" fill="#0095FF"/>
<g filter="url(#filter1_d_625_135)">
<path d="M339.87 488.845C347.72 481.017 352.488 468.651 351.237 456.613C349.987 444.575 342.242 433.508 332.196 430.951C322.149 428.395 310.697 435.472 307.646 447.053C305.967 424.724 304.031 401.46 293.972 382.445C284.864 365.228 269.088 352.908 251.99 350.704C234.892 348.5 216.891 356.824 206.227 372.75C195.564 388.676 192.953 411.829 200.422 430.113C205.923 443.582 216.059 453.606 226.679 461.761C260.995 487.891 302.154 498.517 342.581 491.684" fill="#006DBA"/>
</g>
<path d="M223.136 357.286C237.244 370.847 250.186 386.013 261.776 402.567C279.914 428.384 294.591 457.329 305.297 488.395C306.08 490.661 302.962 491.648 302.187 489.407C284.671 438.918 256.708 394.418 220.856 359.977C219.246 358.43 221.539 355.752 223.136 357.286V357.286Z" fill="#0095FF"/>
<path d="M316.576 222.225C302.054 222.225 290.281 208.332 290.281 191.194C290.281 174.055 302.054 160.162 316.576 160.162C331.098 160.162 342.871 174.055 342.871 191.194C342.871 208.332 331.098 222.225 316.576 222.225Z" fill="#F2F2F2"/>
<path d="M397.651 84.2229H216.486V95.92H374.523C383.815 95.92 393.016 98.0799 401.601 102.276C410.186 106.473 417.986 112.623 424.557 120.377C431.127 128.131 436.339 137.337 439.895 147.468C443.451 157.599 445.281 168.457 445.281 179.423V312.316H465.104C465.981 312.316 466.821 311.905 467.44 311.174C468.06 310.443 468.408 309.451 468.408 308.417V167.726C468.408 156.76 466.578 145.902 463.022 135.771C459.466 125.64 454.254 116.434 447.684 108.68C441.113 100.926 433.313 94.7755 424.728 90.5791C416.144 86.3827 406.943 84.2229 397.651 84.2229V84.2229Z" fill="#F2F2F2"/>
<path d="M362.804 489.496V311.816H318.696V489.496C318.697 490.69 319.1 491.835 319.815 492.679C320.531 493.524 321.501 493.999 322.513 494H358.987C359.999 493.999 360.969 493.524 361.684 492.679C362.4 491.835 362.803 490.69 362.804 489.496Z" fill="#936F6C"/>
<path d="M477.738 308.312V163.831C477.716 140.831 469.964 118.78 456.183 102.516C442.402 86.2526 423.717 77.1042 404.227 77.0781H217.334V313.317H473.497C474.622 313.316 475.7 312.788 476.495 311.85C477.29 310.911 477.737 309.639 477.738 308.312V308.312ZM219.03 79.0802H404.227C423.267 79.1056 441.521 88.0429 454.984 103.931C468.447 119.82 476.02 141.362 476.042 163.831V308.312C476.041 309.108 475.773 309.872 475.296 310.435C474.819 310.998 474.172 311.314 473.497 311.315H219.03V79.0802Z" fill="#212227"/>
<g filter="url(#filter2_d_625_135)">
<path d="M316.576 207.21C320.624 207.204 324.505 205.304 327.368 201.926C330.23 198.548 331.84 193.969 331.844 189.191V60.0608C331.845 59.2646 332.114 58.5013 332.591 57.9383C333.068 57.3753 333.714 57.0586 334.389 57.0578H393.765C394.889 57.0562 395.967 56.5284 396.762 55.5901C397.557 54.6518 398.005 53.3796 398.006 52.0527V5.00507C398.005 3.67811 397.557 2.40594 396.762 1.46764C395.967 0.529342 394.889 0.00153659 393.765 0H305.549C304.425 0.00151809 303.347 0.529323 302.552 1.46763C301.757 2.40593 301.31 3.67811 301.308 5.00507V189.191C301.313 193.969 302.923 198.548 305.785 201.926C308.648 205.304 312.528 207.204 316.576 207.21Z" fill="#33363B"/>
</g>
<path d="M210.548 75.0761C197.752 75.0444 185.469 81.0129 176.402 91.6685C167.335 102.324 162.226 116.794 162.199 131.895V296.371H67.1981C63.3817 296.362 59.7185 298.142 57.0143 301.32C54.3101 304.498 52.7863 308.813 52.7783 313.317H258.896V131.895C258.87 116.794 253.761 102.324 244.694 91.6685C235.626 81.0129 223.344 75.0444 210.548 75.0761Z" fill="#43464B"/>
<path d="M222.15 168.738L212.139 217.544L16.2998 161.596L26.3112 112.79C26.4322 112.193 26.6789 111.642 27.0285 111.188C27.3781 110.734 27.8193 110.392 28.3111 110.192C28.6741 110.042 29.0581 109.974 29.4426 109.991L142.646 40.8195C143.309 40.4198 144.072 40.313 144.796 40.5185C145.52 40.7239 146.158 41.2281 146.595 41.9399L201.153 131.725L221.721 165.582C221.758 165.641 221.784 165.709 221.797 165.781C221.81 165.854 221.81 165.928 221.796 166C222.215 166.822 222.342 167.806 222.15 168.738V168.738Z" fill="white"/>
<path d="M221.796 166C221.786 166.064 221.766 166.124 221.737 166.179C221.707 166.233 221.669 166.28 221.624 166.316C221.571 166.359 221.511 166.389 221.448 166.404C221.384 166.419 221.319 166.418 221.256 166.402C221.154 166.37 221.064 166.297 221.003 166.195L220.932 166.079L219.861 164.312L200.412 132.315L145.871 42.5511C145.56 42.0424 145.104 41.6823 144.587 41.536C144.07 41.3898 143.526 41.4671 143.053 41.754L30.727 110.39L29.719 111.008C29.6782 111.028 29.6365 111.045 29.594 111.059C29.518 111.043 29.441 111.034 29.3637 111.033C29.2583 110.992 29.1704 110.904 29.1179 110.788C29.0906 110.727 29.0737 110.661 29.0682 110.592C29.0627 110.523 29.0688 110.454 29.086 110.388C29.1033 110.322 29.1314 110.261 29.1687 110.208C29.206 110.155 29.2518 110.111 29.3035 110.079L29.4427 109.991L142.646 40.8195C143.309 40.4198 144.072 40.313 144.796 40.5185C145.52 40.7239 146.158 41.2281 146.595 41.9399L201.153 131.725L221.721 165.582C221.758 165.641 221.784 165.709 221.797 165.781C221.81 165.854 221.81 165.928 221.796 166V166Z" fill="#3F3D56"/>
<g filter="url(#filter3_d_625_135)">
<path d="M162.98 170.977L158.62 171.548L126.267 175.777L104.819 178.579L103.552 178.746L76.7886 154.076L75.7633 153.131L69.442 147.305L46.9526 126.577L46.8176 125.122L38.8185 39.9212C38.7095 38.748 38.9991 37.5717 39.6238 36.65C40.2486 35.7284 41.1575 35.1367 42.1513 35.0047L148.905 21.0488C149.899 20.9207 150.896 21.2627 151.677 21.9999C152.457 22.7371 152.959 23.8094 153.071 24.982L158.712 85.0804L161.841 118.4L164.641 148.209L165.938 162.052L166.317 166.062C166.425 167.235 166.134 168.412 165.509 169.333C164.883 170.254 163.974 170.845 162.98 170.977Z" fill="#01579A"/>
</g>
<path d="M133.643 96.2951L87.401 102.339L71.0019 104.482C70.2778 104.577 69.5451 104.502 68.8455 104.263C68.1459 104.023 67.4931 103.623 66.9245 103.086C66.3558 102.549 65.8823 101.885 65.5312 101.131C65.18 100.378 64.958 99.5507 64.8778 98.6963C64.7976 97.8418 64.8609 96.9771 65.0638 96.1515C65.2668 95.3259 65.6056 94.5555 66.0609 93.8844C66.5161 93.2133 67.0789 92.6546 67.7172 92.2402C68.3554 91.8258 69.0566 91.5637 69.7806 91.4691L90.1776 88.8032L132.419 83.2757C133.881 83.085 135.348 83.5875 136.497 84.6728C137.645 85.7581 138.382 87.3373 138.544 89.0632C138.707 90.7891 138.282 92.5204 137.362 93.8766C136.443 95.2327 135.106 96.1026 133.643 96.2951Z" fill="white"/>
<path d="M136.277 120.436C136.157 120.461 136.038 120.486 135.917 120.5L82.2367 127.518L73.2741 128.692C71.8113 128.883 70.3441 128.38 69.1953 127.295C68.0465 126.209 67.3103 124.629 67.1484 122.903C66.9866 121.176 67.4126 119.445 68.3325 118.089C69.2525 116.734 70.5911 115.865 72.0539 115.674L85.0134 113.982L127.535 108.421L134.691 107.485C136.122 107.297 137.559 107.773 138.698 108.812C139.837 109.851 140.59 111.373 140.795 113.055C141.001 114.736 140.645 116.447 139.802 117.824C138.959 119.202 137.694 120.138 136.277 120.436V120.436Z" fill="white"/>
<path d="M142.352 141.841C141.912 142.703 141.309 143.434 140.591 143.976C139.873 144.519 139.059 144.859 138.212 144.97L116.21 147.845L77.0246 152.969L77.016 152.966L75.7629 153.131L69.4417 147.305C69.4026 146.862 69.4023 146.416 69.4408 145.974C69.5741 144.487 70.1332 143.099 71.0258 142.039C71.9184 140.979 73.0908 140.311 74.3493 140.144L79.7926 139.43L101.386 136.61L116.923 134.576L136.992 131.952C138.02 131.817 139.06 132.025 139.994 132.552C140.927 133.078 141.718 133.902 142.275 134.931C142.833 135.96 143.135 137.152 143.149 138.373C143.162 139.594 142.886 140.796 142.352 141.841L142.352 141.841Z" fill="white"/>
<path d="M111.449 66.7871L99.9431 68.2909L94.8612 68.957L87.1846 69.9596C85.7218 70.1505 84.2547 69.6479 83.1059 68.5622C81.9571 67.4766 81.2208 65.8968 81.059 64.1705C80.8972 62.4442 81.3231 60.7127 82.2431 59.357C83.163 58.0013 84.5016 57.1324 85.9644 56.9414L110.223 53.7728C111.685 53.5809 113.152 54.0825 114.301 55.1672C115.45 56.2519 116.187 57.8309 116.35 59.5567C116.512 61.2825 116.087 63.0138 115.168 64.3698C114.249 65.7257 112.911 66.5953 111.449 66.7871V66.7871Z" fill="white"/>
<g filter="url(#filter4_d_625_135)">
<path d="M205.529 103.036L191.502 171.419L168.09 176.673L146.433 181.538L123.197 186.756L115.773 188.423C115.338 188.52 114.891 188.507 114.461 188.384C114.031 188.261 113.628 188.032 113.279 187.711L107.323 182.221L103.552 178.745L76.7887 154.076L93.8057 71.1182C93.9738 70.2928 94.3403 69.5423 94.8611 68.9569C95.3178 68.4389 95.8778 68.0649 96.4893 67.8695C97.1008 67.674 97.7441 67.6634 98.3599 67.8386L202.75 97.6614C203.722 97.9399 204.561 98.6624 205.082 99.6701C205.603 100.678 205.764 101.888 205.529 103.036Z" fill="#01579A"/>
</g>
<path d="M173.365 157.437C173.017 159.124 172.117 160.579 170.861 161.484C169.606 162.388 168.097 162.667 166.667 162.26L105.413 144.761C103.985 144.35 102.752 143.287 101.986 141.806C101.22 140.324 100.983 138.544 101.327 136.857C101.342 136.773 101.362 136.691 101.387 136.61C101.778 134.983 102.687 133.598 103.925 132.745C105.162 131.892 106.631 131.637 108.024 132.034L169.278 149.533C170.707 149.943 171.941 151.006 172.707 152.488C173.473 153.97 173.71 155.75 173.365 157.437Z" fill="white"/>
<path d="M168.09 176.673L146.433 181.538L100.557 168.432C99.1272 168.024 97.8932 166.962 97.1268 165.479C96.3604 163.997 96.1243 162.216 96.4705 160.529C96.8167 158.841 97.7168 157.385 98.9728 156.48C100.229 155.576 101.738 155.297 103.168 155.706L164.422 173.205C165.702 173.568 166.829 174.46 167.6 175.719C167.786 176.02 167.95 176.339 168.09 176.673Z" fill="white"/>
<path d="M123.197 186.756L115.773 188.423C115.338 188.52 114.891 188.507 114.461 188.384C114.031 188.261 113.628 188.032 113.279 187.711L107.323 182.221L123.197 186.756Z" fill="white"/>
<path d="M161.022 120.769C160.675 122.456 159.774 123.911 158.519 124.815C157.263 125.719 155.755 125.999 154.325 125.592L130.6 118.814C129.171 118.403 127.938 117.34 127.172 115.859C126.406 114.377 126.169 112.597 126.513 110.91C126.698 110.003 127.046 109.154 127.535 108.421C128.191 107.43 129.075 106.683 130.082 106.269C131.088 105.856 132.174 105.792 133.21 106.087L156.935 112.865C158.365 113.274 159.599 114.336 160.366 115.818C161.132 117.3 161.368 119.081 161.022 120.769V120.769Z" fill="white"/>
<g filter="url(#filter5_d_625_135)">
<path d="M146.435 181.538L123.195 186.757L115.773 188.425C115.339 188.521 114.892 188.507 114.462 188.384C114.033 188.261 113.63 188.033 113.281 187.713L107.32 182.222L109.412 182.819L113.828 186.884C114.077 187.113 114.365 187.276 114.671 187.364C114.978 187.451 115.297 187.461 115.608 187.393L121.104 186.159L144.343 180.94L146.435 181.538ZM77.0183 152.97L76.7921 154.073L75.7613 153.127L77.0183 152.97ZM146.435 181.538L123.195 186.757L115.773 188.425C115.339 188.521 114.892 188.507 114.462 188.384C114.033 188.261 113.63 188.033 113.281 187.713L107.32 182.222L109.412 182.819L113.828 186.884C114.077 187.113 114.365 187.276 114.671 187.364C114.978 187.451 115.297 187.461 115.608 187.393L121.104 186.159L144.343 180.94L146.435 181.538ZM146.435 181.538L123.195 186.757L115.773 188.425C115.339 188.521 114.892 188.507 114.462 188.384C114.033 188.261 113.63 188.033 113.281 187.713L107.32 182.222L109.412 182.819L113.828 186.884C114.077 187.113 114.365 187.276 114.671 187.364C114.978 187.451 115.297 187.461 115.608 187.393L121.104 186.159L144.343 180.94L146.435 181.538ZM222.15 168.738L195.926 296.578C195.732 297.522 195.227 298.337 194.524 298.844C193.821 299.35 192.976 299.507 192.175 299.279L2.37634 245.056C1.57582 244.827 0.885202 244.231 0.456085 243.402C0.0269683 242.572 -0.105596 241.575 0.0875244 240.63L26.3112 112.79C26.4322 112.193 26.6789 111.642 27.0285 111.188C27.3781 110.734 27.8193 110.391 28.3111 110.192C28.6741 110.042 29.0581 109.973 29.4426 109.991C29.8909 110.007 30.3303 110.143 30.7269 110.39C30.9101 110.493 31.0829 110.619 31.242 110.767L46.8189 125.122L69.4412 145.976L77.0199 152.963L77.0183 152.97L77.0249 152.972L104.817 178.576L109.412 182.819L113.828 186.884C114.077 187.113 114.365 187.276 114.671 187.364C114.978 187.451 115.297 187.461 115.608 187.393L121.104 186.159L144.343 180.94L167.603 175.719L218.549 164.278C218.983 164.177 219.431 164.188 219.861 164.312C220.441 164.479 220.967 164.839 221.378 165.349C221.535 165.549 221.675 165.767 221.796 166C222.215 166.822 222.342 167.806 222.15 168.738ZM146.435 181.538L123.195 186.757L115.773 188.425C115.339 188.521 114.892 188.507 114.462 188.384C114.033 188.261 113.63 188.033 113.281 187.713L107.32 182.222L109.412 182.819L113.828 186.884C114.077 187.113 114.365 187.276 114.671 187.364C114.978 187.451 115.297 187.461 115.608 187.393L121.104 186.159L144.343 180.94L146.435 181.538ZM146.435 181.538L123.195 186.757L115.773 188.425C115.339 188.521 114.892 188.507 114.462 188.384C114.033 188.261 113.63 188.033 113.281 187.713L107.32 182.222L109.412 182.819L113.828 186.884C114.077 187.113 114.365 187.276 114.671 187.364C114.978 187.451 115.297 187.461 115.608 187.393L121.104 186.159L144.343 180.94L146.435 181.538ZM146.435 181.538L123.195 186.757L115.773 188.425C115.339 188.521 114.892 188.507 114.462 188.384C114.033 188.261 113.63 188.033 113.281 187.713L107.32 182.222L109.412 182.819L113.828 186.884C114.077 187.113 114.365 187.276 114.671 187.364C114.978 187.451 115.297 187.461 115.608 187.393L121.104 186.159L144.343 180.94L146.435 181.538Z" fill="white"/>
</g>
<path d="M146.435 181.538L123.195 186.757L115.773 188.425C115.339 188.521 114.892 188.507 114.462 188.384C114.033 188.261 113.63 188.033 113.281 187.713L107.32 182.222L109.412 182.819L113.828 186.884C114.077 187.113 114.365 187.276 114.671 187.364C114.978 187.451 115.297 187.461 115.608 187.393L121.104 186.159L144.343 180.941L146.435 181.538ZM77.0183 152.97L76.7921 154.073L75.7613 153.127L77.0183 152.97ZM146.435 181.538L123.195 186.757L115.773 188.425C115.339 188.521 114.892 188.507 114.462 188.384C114.033 188.261 113.63 188.033 113.281 187.713L107.32 182.222L109.412 182.819L113.828 186.884C114.077 187.113 114.365 187.276 114.671 187.364C114.978 187.451 115.297 187.461 115.608 187.393L121.104 186.159L144.343 180.941L146.435 181.538ZM146.435 181.538L123.195 186.757L115.773 188.425C115.339 188.521 114.892 188.507 114.462 188.384C114.033 188.261 113.63 188.033 113.281 187.713L107.32 182.222L109.412 182.819L113.828 186.884C114.077 187.113 114.365 187.276 114.671 187.364C114.978 187.451 115.297 187.461 115.608 187.393L121.104 186.159L144.343 180.941L146.435 181.538ZM220.932 166.079L220.817 166.181C220.798 166.144 220.764 166.111 220.738 166.071C220.481 165.756 220.162 165.52 219.809 165.386C219.456 165.252 219.08 165.223 218.715 165.303L168.089 176.668L146.435 181.538L123.195 186.757L115.773 188.425C115.339 188.521 114.892 188.507 114.462 188.384C114.033 188.261 113.63 188.033 113.281 187.713L107.32 182.222L109.412 182.819L113.828 186.884C114.077 187.113 114.365 187.276 114.671 187.364C114.978 187.451 115.297 187.461 115.608 187.393L121.104 186.159L144.343 180.941L167.603 175.72L218.549 164.278C218.983 164.177 219.431 164.188 219.861 164.312L220.932 166.079ZM222.15 168.738L195.926 296.578C195.732 297.523 195.227 298.338 194.524 298.844C193.821 299.35 192.976 299.507 192.175 299.279L2.37634 245.056C1.57582 244.827 0.885205 244.232 0.456088 243.402C0.0269711 242.572 -0.105593 241.575 0.0875272 240.63L26.3112 112.79C26.4322 112.193 26.6789 111.642 27.0285 111.188C27.3781 110.734 27.8193 110.392 28.311 110.192C28.6741 110.042 29.0581 109.974 29.4426 109.991C29.8909 110.007 30.3303 110.143 30.7269 110.39C30.9101 110.493 31.0829 110.619 31.242 110.768L46.8189 125.122L69.4412 145.976L77.0199 152.963L77.0183 152.97L77.0249 152.972L104.817 178.576L109.412 182.819L113.828 186.884C114.077 187.113 114.365 187.276 114.671 187.364C114.978 187.451 115.297 187.461 115.608 187.393L121.104 186.159L144.343 180.941L167.603 175.72L218.549 164.278C218.983 164.177 219.431 164.188 219.861 164.312C220.441 164.479 220.967 164.839 221.378 165.349C221.535 165.549 221.675 165.767 221.796 166C222.215 166.822 222.342 167.806 222.15 168.738V168.738ZM221.285 168.491C221.363 168.114 221.368 167.722 221.3 167.343C221.232 166.963 221.093 166.606 220.894 166.298C220.876 166.253 220.849 166.213 220.817 166.181C220.798 166.144 220.764 166.111 220.738 166.071C220.481 165.756 220.162 165.52 219.809 165.386C219.456 165.252 219.08 165.223 218.715 165.303L168.089 176.668L146.435 181.538L123.195 186.757L115.773 188.425C115.339 188.521 114.892 188.507 114.462 188.384C114.033 188.261 113.63 188.033 113.281 187.713L107.32 182.222L103.551 178.746L76.7921 154.073L75.7613 153.127L69.4449 147.304L46.9516 126.574L30.6901 111.587C30.4429 111.359 30.1575 111.197 29.8528 111.109C29.7677 111.085 29.6812 111.068 29.5939 111.059C29.5179 111.043 29.441 111.034 29.3637 111.033C29.1038 111.03 28.8454 111.08 28.5997 111.18C28.2492 111.324 27.9348 111.569 27.685 111.893C27.4353 112.217 27.2581 112.61 27.1696 113.035L0.945898 240.875C0.876902 241.21 0.864535 241.558 0.909554 241.898C0.954573 242.239 1.05606 242.566 1.20822 242.86C1.36039 243.154 1.56026 243.41 1.79635 243.613C2.03244 243.816 2.30016 243.962 2.58415 244.043L192.383 298.266C192.956 298.429 193.56 298.316 194.062 297.953C194.564 297.59 194.924 297.007 195.061 296.331L221.285 168.491ZM146.435 181.538L123.195 186.757L115.773 188.425C115.339 188.521 114.892 188.507 114.462 188.384C114.033 188.262 113.63 188.033 113.281 187.713L107.32 182.222L109.412 182.819L113.828 186.884C114.077 187.113 114.365 187.276 114.671 187.364C114.978 187.451 115.297 187.461 115.608 187.393L121.104 186.159L144.343 180.941L146.435 181.538ZM146.435 181.538L123.195 186.757L115.773 188.425C115.339 188.521 114.892 188.507 114.462 188.384C114.033 188.262 113.63 188.033 113.281 187.713L107.32 182.222L109.412 182.819L113.828 186.884C114.077 187.113 114.365 187.276 114.671 187.364C114.978 187.451 115.297 187.461 115.608 187.393L121.104 186.159L144.343 180.941L146.435 181.538ZM146.435 181.538L123.195 186.757L115.773 188.425C115.339 188.521 114.892 188.507 114.462 188.384C114.033 188.262 113.63 188.033 113.281 187.713L107.32 182.222L109.412 182.819L113.828 186.884C114.077 187.113 114.365 187.276 114.671 187.364C114.978 187.451 115.297 187.461 115.608 187.393L121.104 186.159L144.343 180.941L146.435 181.538Z" fill="#3F3D56"/>
<path d="M51.8434 219.94C52.271 217.845 51.977 215.636 51.026 213.797C50.0749 211.957 48.5445 210.638 46.7704 210.129L22.8152 203.285C21.0426 202.787 19.1748 203.137 17.6209 204.261C16.067 205.384 14.9538 207.189 14.525 209.279C14.0963 211.369 14.387 213.574 15.3334 215.412C16.2799 217.25 17.805 218.57 19.5746 219.083L43.5298 225.927C45.3048 226.431 47.177 226.085 48.7355 224.962C50.2941 223.84 51.4118 222.034 51.8434 219.94Z" fill="black" fill-opacity="0.4"/>
<path d="M316.576 196.199C313.297 196.199 310.639 193.061 310.639 189.192C310.639 185.322 313.297 182.184 316.576 182.184C319.855 182.184 322.514 185.322 322.514 189.192C322.514 193.061 319.855 196.199 316.576 196.199Z" fill="#212227"/>
</g>
<defs>
<filter id="filter0_d_625_135" x="329.727" y="350.354" width="163.273" height="151.35" filterUnits="userSpaceOnUse" color-interpolation-filters="sRGB">
<feFlood flood-opacity="0" result="BackgroundImageFix"/>
<feColorMatrix in="SourceAlpha" type="matrix" values="0 0 0 0 0 0 0 0 0 0 0 0 0 0 0 0 0 0 127 0" result="hardAlpha"/>
<feOffset dy="4"/>
<feGaussianBlur stdDeviation="2"/>
<feComposite in2="hardAlpha" operator="out"/>
<feColorMatrix type="matrix" values="0 0 0 0 0 0 0 0 0 0 0 0 0 0 0 0 0 0 0.25 0"/>
<feBlend mode="normal" in2="BackgroundImageFix" result="effect1_dropShadow_625_135"/>
<feBlend mode="normal" in="SourceGraphic" in2="effect1_dropShadow_625_135" result="shape"/>
</filter>
<filter id="filter1_d_625_135" x="192.162" y="350.354" width="163.273" height="151.35" filterUnits="userSpaceOnUse" color-interpolation-filters="sRGB">
<feFlood flood-opacity="0" result="BackgroundImageFix"/>
<feColorMatrix in="SourceAlpha" type="matrix" values="0 0 0 0 0 0 0 0 0 0 0 0 0 0 0 0 0 0 127 0" result="hardAlpha"/>
<feOffset dy="4"/>
<feGaussianBlur stdDeviation="2"/>
<feComposite in2="hardAlpha" operator="out"/>
<feColorMatrix type="matrix" values="0 0 0 0 0 0 0 0 0 0 0 0 0 0 0 0 0 0 0.25 0"/>
<feBlend mode="normal" in2="BackgroundImageFix" result="effect1_dropShadow_625_135"/>
<feBlend mode="normal" in="SourceGraphic" in2="effect1_dropShadow_625_135" result="shape"/>
</filter>
<filter id="filter2_d_625_135" x="297.309" y="0" width="104.697" height="215.21" filterUnits="userSpaceOnUse" color-interpolation-filters="sRGB">
<feFlood flood-opacity="0" result="BackgroundImageFix"/>
<feColorMatrix in="SourceAlpha" type="matrix" values="0 0 0 0 0 0 0 0 0 0 0 0 0 0 0 0 0 0 127 0" result="hardAlpha"/>
<feOffset dy="4"/>
<feGaussianBlur stdDeviation="2"/>
<feComposite in2="hardAlpha" operator="out"/>
<feColorMatrix type="matrix" values="0 0 0 0 0 0 0 0 0 0 0 0 0 0 0 0 0 0 0.25 0"/>
<feBlend mode="normal" in2="BackgroundImageFix" result="effect1_dropShadow_625_135"/>
<feBlend mode="normal" in="SourceGraphic" in2="effect1_dropShadow_625_135" result="shape"/>
</filter>
<filter id="filter3_d_625_135" x="34.7959" y="21.0225" width="135.543" height="165.723" filterUnits="userSpaceOnUse" color-interpolation-filters="sRGB">
<feFlood flood-opacity="0" result="BackgroundImageFix"/>
<feColorMatrix in="SourceAlpha" type="matrix" values="0 0 0 0 0 0 0 0 0 0 0 0 0 0 0 0 0 0 127 0" result="hardAlpha"/>
<feOffset dy="4"/>
<feGaussianBlur stdDeviation="2"/>
<feComposite in2="hardAlpha" operator="out"/>
<feColorMatrix type="matrix" values="0 0 0 0 0 0 0 0 0 0 0 0 0 0 0 0 0 0 0.25 0"/>
<feBlend mode="normal" in2="BackgroundImageFix" result="effect1_dropShadow_625_135"/>
<feBlend mode="normal" in="SourceGraphic" in2="effect1_dropShadow_625_135" result="shape"/>
</filter>
<filter id="filter4_d_625_135" x="72.7891" y="67.7146" width="136.846" height="128.773" filterUnits="userSpaceOnUse" color-interpolation-filters="sRGB">
<feFlood flood-opacity="0" result="BackgroundImageFix"/>
<feColorMatrix in="SourceAlpha" type="matrix" values="0 0 0 0 0 0 0 0 0 0 0 0 0 0 0 0 0 0 127 0" result="hardAlpha"/>
<feOffset dy="4"/>
<feGaussianBlur stdDeviation="2"/>
<feComposite in2="hardAlpha" operator="out"/>
<feColorMatrix type="matrix" values="0 0 0 0 0 0 0 0 0 0 0 0 0 0 0 0 0 0 0.25 0"/>
<feBlend mode="normal" in2="BackgroundImageFix" result="effect1_dropShadow_625_135"/>
<feBlend mode="normal" in="SourceGraphic" in2="effect1_dropShadow_625_135" result="shape"/>
</filter>
<filter id="filter5_d_625_135" x="-3.99902" y="109.989" width="230.236" height="197.393" filterUnits="userSpaceOnUse" color-interpolation-filters="sRGB">
<feFlood flood-opacity="0" result="BackgroundImageFix"/>
<feColorMatrix in="SourceAlpha" type="matrix" values="0 0 0 0 0 0 0 0 0 0 0 0 0 0 0 0 0 0 127 0" result="hardAlpha"/>
<feOffset dy="4"/>
<feGaussianBlur stdDeviation="2"/>
<feComposite in2="hardAlpha" operator="out"/>
<feColorMatrix type="matrix" values="0 0 0 0 0 0 0 0 0 0 0 0 0 0 0 0 0 0 0.25 0"/>
<feBlend mode="normal" in2="BackgroundImageFix" result="effect1_dropShadow_625_135"/>
<feBlend mode="normal" in="SourceGraphic" in2="effect1_dropShadow_625_135" result="shape"/>
</filter>
<clipPath id="clip0_625_135">
<rect width="489" height="494" fill="white" transform="matrix(-1 0 0 1 489 0)"/>
</clipPath>
</defs>
</svg>
