<svg width="120" height="87" viewBox="0 0 120 87" fill="none" xmlns="http://www.w3.org/2000/svg">
  <g clip-path="url(#clip0_527_1384)">
    <path d="M107.096 22.374C109.942 22.374 112.249 20.0377 112.249 17.1556C112.249 14.2736 109.942 11.9372 107.096 11.9372C104.25 11.9372 101.943 14.2736 101.943 17.1556C101.943 20.0377 104.25 22.374 107.096 22.374Z" fill="#F0D4D1" />
    <path d="M107.631 79.1265L105.196 79.9641L100.846 70.8495L104.44 69.6131L107.631 79.1265Z" fill="#FFB8B8" />
    <path d="M103.219 79.8582L107.916 78.2425L108.921 81.2374L101.266 83.8704C101.134 83.4771 101.08 83.0613 101.107 82.6468C101.134 82.2324 101.241 81.8273 101.422 81.4547C101.604 81.0821 101.856 80.7494 102.164 80.4754C102.472 80.2015 102.831 79.9918 103.219 79.8582V79.8582Z" fill="#212227" />
    <path d="M113.134 84.275L110.565 84.4056L108.844 74.4335L112.636 74.2404L113.134 84.275Z" fill="#FFB8B8" />
    <path d="M108.693 83.7566L113.648 83.5044L113.804 86.6633L105.73 87.0743C105.71 86.6594 105.77 86.2446 105.908 85.8533C106.046 85.4621 106.258 85.1021 106.533 84.7941C106.808 84.486 107.141 84.2358 107.511 84.0578C107.882 83.8798 108.284 83.7774 108.693 83.7566V83.7566Z" fill="#212227" />
    <path d="M97.8462 51.1402C98.0766 50.9325 98.2592 50.6761 98.3811 50.3892C98.5031 50.1023 98.5614 49.7919 98.5521 49.4797C98.5427 49.1675 98.4659 48.8611 98.327 48.5823C98.1881 48.3034 97.9905 48.0587 97.7481 47.8656L100.197 40.6897L96.4226 41.6665L94.6754 48.3311C94.382 48.765 94.2558 49.2928 94.3209 49.8145C94.3861 50.3362 94.6379 50.8156 95.0287 51.1618C95.4196 51.5081 95.9223 51.6971 96.4416 51.6931C96.9608 51.6891 97.4606 51.4924 97.8462 51.1402Z" fill="#FFB8B8" />
    <path d="M112.894 81.2689C112.861 81.2688 112.828 81.267 112.795 81.2635L109.307 80.8896C109.093 80.8677 108.893 80.7718 108.74 80.6181C108.587 80.4643 108.491 80.2621 108.468 80.0453L105.774 55.7143L103.823 62.3724L107.459 75.4575C107.496 75.5907 107.504 75.7305 107.483 75.8672C107.461 76.0039 107.41 76.1343 107.334 76.2492C107.258 76.3642 107.158 76.461 107.042 76.533C106.925 76.605 106.794 76.6505 106.658 76.6664L103.123 77.0778C102.898 77.103 102.672 77.0459 102.485 76.9167C102.297 76.7875 102.162 76.5948 102.103 76.3734L98.2407 61.648C98.2088 61.5269 98.2009 61.4007 98.2173 61.2766L99.9533 48.0606L112.901 49.1121L113.838 80.2835C113.842 80.4114 113.82 80.5389 113.774 80.6583C113.729 80.7776 113.66 80.8865 113.572 80.9784C113.484 81.0703 113.378 81.1434 113.262 81.1933C113.146 81.2432 113.02 81.2689 112.894 81.2689V81.2689Z" fill="#212227" />
    <path d="M108.418 51.3719C104.08 51.3719 99.1686 49.6745 98.8712 49.5702L98.7852 49.54L103.679 24.1097L103.769 24.1134C105.708 24.1931 111.001 24.234 111.054 24.2344L111.149 24.2351L113.189 46.6768L113.554 49.9594L113.509 49.996C112.261 51.0177 110.399 51.3719 108.418 51.3719Z" fill="#43464B" />
    <path d="M100.582 49.1742L97.5205 47.9256L99.0807 28.8144C99.1182 28.3433 99.2598 27.8867 99.4949 27.4784C99.73 27.07 100.053 26.7203 100.439 26.4552L102.05 25.3451C102.004 25.1881 101.996 25.0224 102.026 24.8617C102.056 24.7009 102.123 24.5496 102.222 24.4202C102.321 24.2908 102.448 24.187 102.595 24.1173C102.741 24.0476 102.901 24.014 103.063 24.0193L103.524 24.0343C103.612 23.9744 103.715 23.9428 103.821 23.9436C103.927 23.9443 104.03 23.9774 104.116 24.0386C104.203 24.0997 104.27 24.186 104.307 24.2861C104.345 24.3863 104.352 24.4955 104.327 24.5996L104.226 26.6244L100.582 49.1742Z" fill="#212227" />
    <path d="M99.0366 45.7482L95.04 45.5778L96.3347 37.144L97.4075 29.2082C97.4286 28.9232 97.513 28.6468 97.6545 28.3995C97.7959 28.1522 97.9907 27.9405 98.2243 27.7802C98.4579 27.6199 98.7243 27.5151 99.0035 27.4737C99.2827 27.4323 99.5675 27.4554 99.8366 27.5411V27.5411C100.256 27.6743 100.615 27.9527 100.852 28.3275C101.089 28.7023 101.188 29.1496 101.132 29.5909L100.045 38.1894L99.0366 45.7482Z" fill="#212227" />
    <path d="M105.365 49.4665L105.337 49.3814C105.319 49.323 103.518 43.472 106.531 36.4899L108.043 28.8777L109.334 24.098C109.358 24.0125 109.402 23.934 109.461 23.8686C109.521 23.8032 109.595 23.7528 109.677 23.7212C109.773 23.6874 109.877 23.6831 109.976 23.7088C110.075 23.7346 110.164 23.7892 110.232 23.8658V23.8658C111.132 23.5982 112.1 23.6962 112.93 24.1391L114.744 25.1067C115.147 25.3218 115.469 25.6664 115.658 26.0864C115.847 26.5064 115.893 26.9781 115.789 27.4276L113.31 38.1414L114.515 48.1485L105.365 49.4665Z" fill="#212227" />
    <path d="M108.004 45.3413C108.311 45.375 108.621 45.3403 108.913 45.2394C109.205 45.1386 109.471 44.9742 109.694 44.7578C109.916 44.5414 110.089 44.2782 110.2 43.9868C110.311 43.6954 110.358 43.3829 110.337 43.0713L115.95 38.8601L113.988 37.918L107.935 41.0757C107.42 41.1462 106.949 41.4055 106.611 41.8043C106.272 42.2031 106.09 42.7138 106.098 43.2396C106.107 43.7654 106.306 44.2698 106.657 44.6572C107.008 45.0445 107.487 45.2879 108.004 45.3413V45.3413Z" fill="#FFB8B8" />
    <path d="M111.523 43.4565L109.627 39.8721L114.303 36.7555L112.021 28.4667C111.93 28.1349 111.907 27.7875 111.954 27.4463C112.001 27.1051 112.117 26.7774 112.295 26.4837C112.473 26.1899 112.708 25.9365 112.987 25.7391C113.266 25.5417 113.582 25.4047 113.916 25.3366V25.3366C114.505 25.2177 115.117 25.3193 115.638 25.6227C116.159 25.9261 116.553 26.4107 116.748 26.9863L119.827 36.1517C119.891 36.3405 119.894 36.5448 119.837 36.7358C119.78 36.9267 119.666 37.0949 119.51 37.2168L111.523 43.4565Z" fill="#212227" />
    <path d="M107.461 18.2624C106.844 18.3438 106.378 17.7037 106.161 17.1121C105.945 16.5204 105.781 15.8317 105.244 15.5121C104.51 15.0754 103.571 15.6006 102.732 15.4565C101.784 15.2938 101.168 14.2769 101.12 13.3048C101.072 12.3327 101.454 11.3978 101.828 10.5016L101.959 11.6154C101.942 11.2379 102.02 10.8622 102.187 10.5241C102.354 10.1861 102.604 9.89711 102.912 9.68476L102.744 11.3191C102.78 11.0936 102.859 10.8775 102.978 10.6832C103.096 10.489 103.252 10.3203 103.435 10.1869C103.618 10.0536 103.825 9.95814 104.045 9.90612C104.264 9.85409 104.492 9.8465 104.714 9.88377L104.688 10.8576C105.782 10.7258 106.886 10.5938 107.984 10.6942C109.082 10.7946 110.187 11.1463 111.019 11.8784C112.264 12.9735 112.718 14.7767 112.566 16.4391C112.413 18.1015 111.735 19.6632 111.029 21.1718C110.851 21.5514 110.606 21.9797 110.193 22.0281C109.823 22.0715 109.484 21.7581 109.369 21.3991C109.281 21.0308 109.284 20.6458 109.379 20.2792C109.484 19.7189 109.615 19.1461 109.517 18.5846C109.419 18.0231 109.02 17.4683 108.461 17.3995C107.902 17.3307 107.33 17.9776 107.599 18.4787L107.461 18.2624Z" fill="#936F6C" />
    <path d="M59.3101 75.5641L57.3042 74.7087L55.9281 64.5256H37.6033L36.1117 74.6671L34.3171 75.5758C34.2312 75.6193 34.1624 75.6908 34.1217 75.7789C34.081 75.8669 34.0709 75.9663 34.0929 76.0609C34.115 76.1556 34.168 76.2399 34.2432 76.3002C34.3185 76.3605 34.4117 76.3933 34.5077 76.3933H59.1448C59.2432 76.3933 59.3386 76.3589 59.4147 76.2958C59.4908 76.2327 59.5431 76.1449 59.5625 76.0472C59.582 75.9495 59.5675 75.8481 59.5215 75.76C59.4755 75.6719 59.4008 75.6027 59.3101 75.5641V75.5641Z" fill="#E6E6E6" />
    <path d="M91.8742 65.8802H1.85752C1.38523 65.8792 0.932647 65.6884 0.599059 65.3498C0.265471 65.0112 0.0781283 64.5525 0.078125 64.0742V51.2192H93.6536V64.0742C93.6536 64.5525 93.4662 65.0112 93.1326 65.3498C92.7991 65.6884 92.3465 65.8792 91.8742 65.8802V65.8802Z" fill="#CCCCCC" />
    <path d="M93.7478 57.2948H-0.00390625V2.29112C-0.00324708 1.71388 0.223481 1.16049 0.626531 0.752327C1.02958 0.344169 1.57604 0.114581 2.14602 0.113937H91.5979C92.1679 0.114587 92.7144 0.344176 93.1174 0.752334C93.5205 1.16049 93.7472 1.71389 93.7478 2.29112V57.2948Z" fill="#282A2F" />
    <path d="M88.1478 53.3027H5.59493C5.15551 53.3022 4.73422 53.1252 4.4235 52.8106C4.11278 52.4959 3.93799 52.0693 3.9375 51.6242V5.78463C3.93799 5.3396 4.11277 4.91295 4.42349 4.59827C4.73421 4.28359 5.1555 4.10657 5.59493 4.10606H88.1478C88.5872 4.10657 89.0085 4.28359 89.3192 4.59827C89.63 4.91295 89.8047 5.3396 89.8052 5.78463V51.6242C89.8047 52.0693 89.6299 52.4959 89.3192 52.8106C89.0085 53.1252 88.5872 53.3022 88.1478 53.3027Z" fill="#43464B" />
    <path d="M87.3708 76.5001H7.43296C7.37731 76.5001 7.32394 76.4778 7.28459 76.4379C7.24525 76.3981 7.22314 76.344 7.22314 76.2877C7.22314 76.2313 7.24525 76.1773 7.28459 76.1374C7.32394 76.0976 7.37731 76.0752 7.43296 76.0752H87.3708C87.4264 76.0752 87.4798 76.0976 87.5191 76.1374C87.5585 76.1773 87.5806 76.2313 87.5806 76.2877C87.5806 76.344 87.5585 76.3981 87.5191 76.4379C87.4798 76.4778 87.4264 76.5001 87.3708 76.5001Z" fill="#282A2F" />
    <path d="M80.3923 47.6072H13.3504C13.2948 47.6072 13.2414 47.5848 13.2021 47.545C13.1627 47.5051 13.1406 47.4511 13.1406 47.3947V14.8529C13.1406 14.7965 13.1627 14.7425 13.2021 14.7027C13.2414 14.6628 13.2948 14.6404 13.3504 14.6404C13.4061 14.6404 13.4594 14.6628 13.4988 14.7027C13.5381 14.7425 13.5602 14.7965 13.5602 14.8529V47.1823H80.3923C80.448 47.1823 80.5013 47.2047 80.5407 47.2445C80.58 47.2843 80.6021 47.3384 80.6021 47.3947C80.6021 47.4511 80.58 47.5051 80.5407 47.545C80.5013 47.5848 80.448 47.6072 80.3923 47.6072Z" fill="#46C0FF" />
    <path d="M27.6742 45.2693H21.5764C21.4113 45.2691 21.253 45.2026 21.1363 45.0844C21.0195 44.9661 20.9538 44.8058 20.9536 44.6386V36.1265C20.9538 35.9593 21.0195 35.799 21.1363 35.6808C21.253 35.5625 21.4113 35.496 21.5764 35.4958H27.6742C27.8393 35.496 27.9976 35.5625 28.1143 35.6808C28.2311 35.799 28.2968 35.9593 28.297 36.1265V44.6386C28.2968 44.8058 28.2311 44.9661 28.1143 45.0844C27.9976 45.2026 27.8393 45.2691 27.6742 45.2693V45.2693Z" fill="white" />
    <path d="M38.7943 45.2698H32.6966C32.5314 45.2696 32.3731 45.2031 32.2564 45.0849C32.1396 44.9667 32.0739 44.8063 32.0737 44.6391V28.0523C32.0739 27.8851 32.1396 27.7248 32.2564 27.6065C32.3731 27.4883 32.5314 27.4218 32.6966 27.4216H38.7943C38.9594 27.4218 39.1177 27.4883 39.2344 27.6065C39.3512 27.7248 39.4169 27.8851 39.4171 28.0523V44.6391C39.4169 44.8063 39.3512 44.9667 39.2344 45.0849C39.1177 45.2031 38.9594 45.2696 38.7943 45.2698Z" fill="white" />
    <path d="M49.9139 45.2694H43.8162C43.6511 45.2692 43.4928 45.2027 43.376 45.0845C43.2592 44.9663 43.1936 44.806 43.1934 44.6387V36.1266C43.1936 35.9594 43.2592 35.7991 43.376 35.6809C43.4928 35.5626 43.6511 35.4961 43.8162 35.4959H49.9139C50.079 35.4961 50.2373 35.5626 50.3541 35.6809C50.4709 35.7991 50.5365 35.9594 50.5367 36.1266V44.6387C50.5365 44.806 50.4709 44.9663 50.3541 45.0845C50.2373 45.2027 50.079 45.2692 49.9139 45.2694V45.2694Z" fill="white" />
    <path d="M61.0345 45.2698H54.9368C54.7754 45.2734 54.6193 45.212 54.5025 45.0991C54.3858 44.9862 54.318 44.8311 54.314 44.6677V24.8365C54.318 24.6732 54.3858 24.518 54.5025 24.4052C54.6193 24.2923 54.7754 24.2309 54.9368 24.2344H61.0345C61.1959 24.2309 61.352 24.2923 61.4688 24.4052C61.5855 24.518 61.6533 24.6732 61.6573 24.8365V44.6677C61.6533 44.8311 61.5855 44.9862 61.4688 45.0991C61.352 45.212 61.1959 45.2734 61.0345 45.2698V45.2698Z" fill="white" />
    <path d="M72.1537 45.2698H66.0559C65.8908 45.2696 65.7325 45.2031 65.6157 45.0849C65.499 44.9667 65.4333 44.8063 65.4331 44.6391V19.1282C65.4333 18.961 65.499 18.8006 65.6157 18.6824C65.7325 18.5642 65.8908 18.4977 66.0559 18.4975H72.1537C72.3188 18.4977 72.4771 18.5642 72.5938 18.6824C72.7106 18.8006 72.7763 18.961 72.7765 19.1282V44.6391C72.7763 44.8063 72.7106 44.9667 72.5938 45.0849C72.4771 45.2031 72.3188 45.2696 72.1537 45.2698Z" fill="white" />
    <path d="M24.6256 32.9461C25.3208 32.9461 25.8844 32.3753 25.8844 31.6713C25.8844 30.9672 25.3208 30.3965 24.6256 30.3965C23.9303 30.3965 23.3667 30.9672 23.3667 31.6713C23.3667 32.3753 23.9303 32.9461 24.6256 32.9461Z" fill="#006DBA" />
    <path d="M35.7457 24.6593C36.4409 24.6593 37.0045 24.0886 37.0045 23.3845C37.0045 22.6805 36.4409 22.1097 35.7457 22.1097C35.0504 22.1097 34.4868 22.6805 34.4868 23.3845C34.4868 24.0886 35.0504 24.6593 35.7457 24.6593Z" fill="#006DBA" />
    <path d="M46.8658 32.9461C47.561 32.9461 48.1246 32.3753 48.1246 31.6713C48.1246 30.9672 47.561 30.3965 46.8658 30.3965C46.1705 30.3965 45.6069 30.9672 45.6069 31.6713C45.6069 32.3753 46.1705 32.9461 46.8658 32.9461Z" fill="#006DBA" />
    <path d="M57.9854 20.6222C58.6807 20.6222 59.2443 20.0515 59.2443 19.3474C59.2443 18.6434 58.6807 18.0726 57.9854 18.0726C57.2902 18.0726 56.7266 18.6434 56.7266 19.3474C56.7266 20.0515 57.2902 20.6222 57.9854 20.6222Z" fill="#006DBA" />
    <path d="M69.1051 15.9477C69.8003 15.9477 70.3639 15.3769 70.3639 14.6729C70.3639 13.9688 69.8003 13.3981 69.1051 13.3981C68.4098 13.3981 67.8462 13.9688 67.8462 14.6729C67.8462 15.3769 68.4098 15.9477 69.1051 15.9477Z" fill="#006DBA" />
    <path d="M46.8917 31.9569L35.7453 23.5019L24.7513 31.8413L24.4995 31.5013L35.7453 22.971L46.8389 31.3858L57.8625 19.1686L57.9068 19.1504L69.0267 14.6131L69.1837 15.0072L58.108 19.5265L46.8917 31.9569Z" fill="#46C0FF" />
  </g>
  <defs>
    <clipPath id="clip0_527_1384">
      <rect width="120" height="87" fill="white" />
    </clipPath>
  </defs>
</svg>